<svg width="18" height="19" fill="none" xmlns="http://www.w3.org/2000/svg"><circle cx="8" cy="5" r="4.25" stroke="#fff" stroke-width="1.5"/><path d="M.7945 18.25C1.165 15.1518 3.802 12.75 7 12.75h2c3.198 0 5.8349 2.4018 6.2055 5.5H.7945z" stroke="#fff" stroke-width="1.5"/><path d="M11 12h7v7h-7v-7z" fill="#000"/><path d="M17.8785 14.9728l-.6607-.5017a2.2665 2.2665 0 000-.5271l.6613-.502c.124-.0969.1571-.2669.0782-.4011l-.6874-1.1538c-.0791-.1351-.2477-.1941-.3974-.139l-.7787.3042a2.6882 2.6882 0 00-.4679-.2638l-.1195-.8034c-.0215-.1542-.1578-.2688-.318-.2676h-1.3778c-.1589-.0009-.2941.1125-.3163.2653l-.1198.8057a2.784 2.784 0 00-.4672.2641l-.7808-.3048c-.1481-.0567-.3166.0015-.3945.1364l-.6879 1.1558c-.081.1345-.0477.3063.0781.4029l.6607.5017a2.2556 2.2556 0 000 .5271l-.6613.5017c-.1241.0968-.1574.2668-.0784.4011l.687 1.1541c.0791.1352.2478.1942.3975.1391l.7787-.3043a2.695 2.695 0 00.4681.2641l.1198.8028c.0211.1538.1565.2685.3163.2679h1.3777c.1593.0012.2949-.1122.3172-.2653l.1198-.8057a2.792 2.792 0 00.4673-.2641l.7817.3051c.1481.0566.3165-.0016.3944-.1364l.6901-1.1605c.0773-.134.0433-.3026-.0803-.3985zm-3.379.6893c-.8271 0-1.4976-.6511-1.4976-1.4543 0-.8032.6705-1.4543 1.4976-1.4543.8271 0 1.4975.6511 1.4975 1.4543-.001.8028-.6709 1.4534-1.4975 1.4543z" fill="#fff"/></svg>