<svg width="5" height="19" viewBox="0 0 5 19" fill="none" xmlns="http://www.w3.org/2000/svg">
<path d="M3.94385 12.5435H1.01416L0.599121 0.226562H4.35889L3.94385 12.5435ZM2.479 14.4722C3.07308 14.4722 3.54915 14.6471 3.90723 14.9971C4.27344 15.347 4.45654 15.7946 4.45654 16.3398C4.45654 16.877 4.27344 17.3205 3.90723 17.6704C3.54915 18.0203 3.07308 18.1953 2.479 18.1953C1.89307 18.1953 1.41699 18.0203 1.05078 17.6704C0.692708 17.3205 0.513672 16.877 0.513672 16.3398C0.513672 15.8027 0.692708 15.3592 1.05078 15.0093C1.41699 14.6512 1.89307 14.4722 2.479 14.4722Z" fill="black"/>
</svg>
