<svg id="hackathon" data-name="hackathon" xmlns="http://www.w3.org/2000/svg" xmlns:xlink="http://www.w3.org/1999/xlink" viewBox="0 0 94.585 66.069">
  <defs>
    <linearGradient id="linear-gradient" x1="1.601" y1="3.363" x2="2.601" y2="3.363" gradientUnits="objectBoundingBox">
      <stop offset="0.2" stop-color="#d10000"/>
      <stop offset="0.753" stop-color="red"/>
    </linearGradient>
    <linearGradient id="linear-gradient-2" y1="0.5" x2="1" y2="0.5" gradientUnits="objectBoundingBox">
      <stop offset="0.622" stop-color="#007aec"/>
      <stop offset="0.999" stop-color="#005cb7"/>
    </linearGradient>
    <linearGradient id="linear-gradient-3" y1="0.5" x2="1" y2="0.5" gradientUnits="objectBoundingBox">
      <stop offset="0.057" stop-color="#9ac3ff"/>
      <stop offset="0.255" stop-color="#94bffd"/>
      <stop offset="0.512" stop-color="#84b3f7"/>
      <stop offset="0.799" stop-color="#6a9fee"/>
      <stop offset="0.915" stop-color="#5d96e9"/>
    </linearGradient>
    <linearGradient id="linear-gradient-4" x1="-0.012" y1="0.494" x2="0.993" y2="0.494" xlink:href="#linear-gradient"/>
    <linearGradient id="linear-gradient-5" x1="-15.95" y1="-19.035" x2="-15.95" y2="-20.035" xlink:href="#linear-gradient"/>
  </defs>
  <path id="Path_162" data-name="Path 162" d="M16.675,47.116l31.092.071L69.25,91.815l-31.284-.27Z" transform="translate(-13.552 -38.293)" fill="#80b3fa"/>
  <path id="Path_163" data-name="Path 163" d="M35.89,62.245l27.581.378,17.38,36.271-26.07,1.133Z" transform="translate(-29.169 -50.588)" fill="#243e6f"/>
  <path id="Path_164" data-name="Path 164" d="M24.414,91.544l39.6.568v2.981l-41.59.142L0,48.252l3.123-1.136Z" transform="translate(0 -38.293)" fill="#9ac3ff"/>
  <path id="Path_165" data-name="Path 165" d="M341.845,287.393l22.677.142.179,2.555-22.855.284Z" transform="translate(-277.828 -233.573)" fill="#80b3fa"/>
  <path id="Path_166" data-name="Path 166" d="M352.367,293.692l4.053-.039.032-.71-4.085-.079Z" transform="translate(-286.38 -238.02)" fill="#24266f"/>
  <path id="Path_167" data-name="Path 167" d="M380.15,293.878l6.389-.027.05-.492-6.44-.055Z" transform="translate(-308.96 -238.377)" fill="#24266f"/>
  <ellipse id="Ellipse_73" data-name="Ellipse 73" cx="1.429" cy="1.353" rx="1.429" ry="1.353" transform="translate(30.982 17.61) rotate(-6.017)" fill="url(#linear-gradient)"/>
  <rect id="Rectangle_81" data-name="Rectangle 81" width="14.437" height="1.203" transform="matrix(0.996, -0.085, 0.085, 0.996, 15.449, 19.7)" fill="#4e4d4d"/>
  <rect id="Rectangle_82" data-name="Rectangle 82" width="14.437" height="1.203" transform="matrix(0.996, -0.085, 0.085, 0.996, 16.588, 22.781)" fill="#4e4d4d"/>
  <rect id="Rectangle_83" data-name="Rectangle 83" width="14.437" height="1.203" transform="matrix(0.996, -0.085, 0.085, 0.996, 17.659, 25.823)" fill="#4e4d4d"/>
  <path id="Path_168" data-name="Path 168" d="M395.3,77.292l1.773,3.753,2.216-2.388-.849-4.139Z" transform="translate(-319.204 -60.562)" fill="#ffbcb6"/>
  <path id="Path_169" data-name="Path 169" d="M385.736,103.3s-2.456,1.716-2.77,2.616c-.577,1.654,1.2,5.2,1,6.937-.07.606-.687,3.786-.687,3.786l4.011,2.128,2.992-1.819-2.438-13.191Z" transform="translate(-309.083 -83.955)" fill="url(#linear-gradient-2)"/>
  <path id="Path_170" data-name="Path 170" d="M396.449,78.992l2.964-2.808.234,1.092-3,2.223Z" transform="translate(-320.136 -61.917)" fill="#e1aca6"/>
  <path id="Path_171" data-name="Path 171" d="M204.4,318.924l-.686,5.042-14.852.469,3.541-3.635,5.37.117,1.828-2.462Z" transform="translate(-151.426 -258.818)" fill="#9c266f"/>
  <path id="Path_172" data-name="Path 172" d="M212.632,294.9l2.141,4.461,2.322.28,1.639-5.466Z" transform="translate(-170.742 -239.085)" fill="#ffbcb6"/>
  <path id="Path_173" data-name="Path 173" d="M242.417,292.481l2.141,4.461,2.322.28,1.639-5.466Z" transform="translate(-194.949 -237.119)" fill="#e1aca6"/>
  <path id="Path_174" data-name="Path 174" d="M251.1,224.956l4.329-.318,10.31-7.222,14.649,5.951-6.372-11.8-10.224-3.015Z" transform="translate(-202.003 -169.497)" fill="#241b5f"/>
  <path id="Path_175" data-name="Path 175" d="M401.853,93.423s9.465,6.724,11.536,11.133c.571,1.215,2.755,7.6,2.755,7.6v4.765l-6.949,4.67-8.814-2.009,3.2-9.7s-4.1-5.169-4.755-7.232c-.638-2.023-.252-8.482-.252-8.482a5.672,5.672,0,0,0,1.785.4A5.822,5.822,0,0,0,401.853,93.423Z" transform="translate(-321.768 -75.928)" fill="url(#linear-gradient-3)"/>
  <path id="Path_176" data-name="Path 176" d="M242.662,108.063l7.221-5.4,11.584,7.72-3.31,9.264Z" transform="translate(-195.148 -83.434)" fill="#e6e6e6"/>
  <path id="Path_177" data-name="Path 177" d="M254.7,173.768c-.8,2.739-2.408,6.5-2.408,6.5s-13.46,1.313-15.82.091c-3.842-1.988-12.771-10.54-12.771-10.54-.287-.264-.7-1.409-.961-1.115l-13.786,15.82a17.291,17.291,0,0,1-3.662.3,8.1,8.1,0,0,1-2.97-1.524,21.753,21.753,0,0,1-2.376-4.064s7.363-11.784,10.2-15.442c1.425-1.84,3.948-6.489,6.236-6.908,2.025-.371,7.325,3.759,7.325,3.759l19.1,10.261s6.6.969,8.216-.3a20.747,20.747,0,0,1,3.677-2.251A12.337,12.337,0,0,1,254.7,173.768Z" transform="translate(-160.431 -127.493)" fill="#24266f"/>
  <path id="Path_178" data-name="Path 178" d="M329.211,113.922s9.095,5.944,12.185,4.126c2.589-1.523,2.627-11.759,5.042-12.133,1.094-.17,5,4.277,5.43,5.3.893,2.094-1.48,8.395-2.778,11.154-.9,1.913-4.4,5.33-6.512,5.394-4.48.134-15.773-8.522-15.773-8.522Z" transform="translate(-263.534 -86.076)" fill="#288cff"/>
  <path id="Path_179" data-name="Path 179" d="M174.618,321.342l-.685,5.042-14.851.469,3.541-3.635,5.369.117,1.828-2.462Z" transform="translate(-127.219 -260.784)" fill="#bf266f"/>
  <path id="Path_180" data-name="Path 180" d="M358.765,26.571c-.53.974.1,3.347-.111,4.435a25.935,25.935,0,0,1-1.219,3.184s2.414,2.994,3.546,3.525a6.352,6.352,0,0,0,3.546.341c1.4-.5,3.479-2.912,4.21-4.208.965-1.709,1.884-7.619,1.884-7.619s-7.724-1.456-10.194-.8A3.482,3.482,0,0,0,358.765,26.571Z" transform="translate(-288.428 -20.531)" fill="#ffbcb6"/>
  <path id="Path_181" data-name="Path 181" d="M371.086,305.308l-.725,6.331,24.58.1-.2-7.53Z" transform="translate(-303.593 -247.237)" fill="#00a99d"/>
  <path id="Path_182" data-name="Path 182" d="M373.081,278.07l.65,6.153,23.654-1.1.113-6.493Z" transform="translate(-305.803 -224.824)" fill="url(#linear-gradient-4)"/>
  <rect id="Rectangle_84" data-name="Rectangle 84" width="8.538" height="1.761" transform="matrix(-0.974, 0.227, -0.227, -0.974, 67.221, 26.774)" fill="url(#linear-gradient-5)"/>
  <path id="Path_183" data-name="Path 183" d="M293.008,145.48l1.963.409-.4-1.714Z" transform="translate(-238.137 -117.176)" fill="#c69c6d"/>
  <path id="Path_184" data-name="Path 184" d="M292.949,149.121l.7.146-.142-.609Z" transform="translate(-238.089 -120.818)" fill="red"/>
  <path id="Path_185" data-name="Path 185" d="M319.326,145.063l-5.285-2.568a9.965,9.965,0,0,0,.122,2.936c.42.9,2.936,2.691,2.936,2.691Z" transform="translate(-253.115 -115.81)" fill="#ffbcb6"/>
  <path id="Path_186" data-name="Path 186" d="M358.532,7.64c.37-.34,1.59-.8,1.959-.46.841.78-.712,4.535-.712,4.535l4.16.663,1.164-.892s1.433-6.1.541-7.86c-.5-.986-3.742-2.361-3.742-2.361S359.17-.042,358.191,0c-1.125.05-3.151,1.244-4.118,1.82-.516.307-1.312,1.346-1.9,1.47a5.248,5.248,0,0,1-1.7-.418s-.692,2.924-.165,3.679a2.762,2.762,0,0,0,1.915.607c.548-.054,1.377-1.053,1.927-1.064a1.863,1.863,0,0,1,1.222.612" transform="translate(-282.475 0)" fill="#04004a"/>
  <path id="Path_187" data-name="Path 187" d="M383.775,283.687l.787,4.4,21.719-1.107-.095-4.649Z" transform="translate(-314.495 -229.455)" fill="#e6e6e6"/>
  <path id="Path_188" data-name="Path 188" d="M371.315,315.478l-.55,4.607,22.7.045-.23-4.368Z" transform="translate(-303.921 -256.399)" fill="#e6e6e6"/>
  <path id="Path_189" data-name="Path 189" d="M326.95,144.714c-.227-.669-.163-1.3.143-1.4s.738.354.965,1.024.3.967-.006,1.071c-.113.038-.448.357-.579.259A2.046,2.046,0,0,1,326.95,144.714Z" transform="translate(-263.542 -116.464)" fill="#ffb5b1"/>
</svg>
