<svg width="20" height="18" fill="none" xmlns="http://www.w3.org/2000/svg"><path d="M1.1494 13.063l8.675 3.8984a.4318.4318 0 00.357 0l8.666-3.9007a.2479.2479 0 00.1126-.1006.3022.3022 0 00.0425-.1559.3026.3026 0 00-.0425-.156.2479.2479 0 00-.1126-.1006l-8.84-3.752-8.846 3.7543a.2447.2447 0 00-.115.0971.3009.3009 0 00-.0463.1547.304.304 0 00.039.1573.2499.2499 0 00.1103.104v0z" stroke="#242424" stroke-miterlimit="10"/><path d="M1.1494 9.5201l8.675 3.8984a.4318.4318 0 00.357 0l8.666-3.9007a.2478.2478 0 00.1126-.1006.3024.3024 0 00.0425-.156.3024.3024 0 00-.0425-.1559.2478.2478 0 00-.1126-.1006l-8.84-3.752-8.846 3.7543a.2453.2453 0 00-.115.0971A.3007.3007 0 001 9.2588a.3038.3038 0 00.039.1573.2503.2503 0 00.1103.104z" fill="#fff" stroke="#242424" stroke-miterlimit="10"/><path d="M1.1494 5.2675l8.675 3.8983a.4316.4316 0 00.357 0l8.666-3.9006a.2478.2478 0 00.1126-.1006.3024.3024 0 00.0425-.156.3025.3025 0 00-.0425-.156.2478.2478 0 00-.1126-.1006L10.0074 1l-8.846 3.7543a.2452.2452 0 00-.115.0972A.3007.3007 0 001 5.0062a.3038.3038 0 00.039.1573.2503.2503 0 00.1103.104z" fill="#fff" stroke="#242424" stroke-miterlimit="10"/></svg>