<svg width="140" height="37" fill="none" xmlns="http://www.w3.org/2000/svg"><path d="M56.9706 15.7872v-4.4747l-2.1109 2.4418-2.1108-2.4418v4.4747H50.834V8.2027h1.2365l2.7892 3.2459 2.7893-3.246h1.2365v7.5846h-1.9149zM62.8963 11.9949c0 1.2439.9346 2.0175 1.9448 2.0175.9957 0 1.9452-.7736 1.9452-2.0175s-.9495-2.0325-1.9452-2.0325c-1.0102 0-1.9448.7886-1.9448 2.0325zm5.8198 0c0 2.1536-1.7338 3.8828-3.875 3.8828-2.1407 0-3.8597-1.7292-3.8597-3.8828 0-2.154 1.719-3.8988 3.8597-3.8988 2.1412 0 3.875 1.7447 3.875 3.8988zM77.1434 9.507l-1.1459 1.244c-.6183-.5764-1.1614-.774-1.8244-.774-1.0102 0-1.9452.774-1.9452 2.0179s.935 2.0175 1.9452 2.0175c.663 0 1.2061-.1977 1.8244-.7736l1.1459 1.2434c-.7082.8496-1.7791 1.3955-2.9703 1.3955-2.1407 0-3.8596-1.7292-3.8596-3.8828 0-2.154 1.7189-3.8834 3.8596-3.8834 1.1912 0 2.2621.5464 2.9703 1.3956zM81.0238 15.7872h-1.9154V8.2027h1.9154v2.776h1.131l1.9895-2.776h2.1263l-2.6232 3.7012 2.759 3.8833h-2.1412l-2.1104-2.9431h-1.131v2.9431zM89.2747 11.9949c0 1.2439.9346 2.0175 1.9448 2.0175.9952 0 1.9452-.7736 1.9452-2.0175s-.95-2.0325-1.9452-2.0325c-1.0102 0-1.9448.7886-1.9448 2.0325zm5.8198 0c0 2.1536-1.7338 3.8828-3.875 3.8828s-3.8601-1.7292-3.8601-3.8828c0-2.154 1.7189-3.8988 3.8601-3.8988s3.875 1.7447 3.875 3.8988zM101.193 14.1485c.724 0 .965-.3482.965-.7885 0-.4244-.241-.7586-.935-.7736h-2.126v1.5621h2.096zm-2.096-2.9576h1.93c.543-.0155.784-.2732.784-.6825 0-.4098-.256-.6675-.814-.6675h-1.9v1.35zm2.036-2.9882c1.794 0 2.593.7736 2.593 2.063 0 .713-.286 1.3044-1.025 1.5621.92.2122 1.372.8492 1.372 1.6993 0 1.6077-.875 2.2601-2.925 2.2601h-3.9654V8.2027h3.9504zM112.506 9.507l-1.146 1.244c-.617-.5764-1.161-.774-1.824-.774-1.01 0-1.945.774-1.945 2.0179s.935 2.0175 1.945 2.0175c.663 0 1.207-.1977 1.824-.7736l1.146 1.2434c-.709.8496-1.779 1.3955-2.97 1.3955-2.141 0-3.86-1.7292-3.86-3.8828 0-2.154 1.719-3.8834 3.86-3.8834 1.191 0 2.261.5464 2.97 1.3956zM116.387 15.7872h-1.915V8.2027h1.915v2.776h1.13l1.991-2.776h2.125l-2.623 3.7012 2.759 3.8833h-2.141l-2.111-2.9431h-1.13v2.9431zM128.521 15.7872v-4.4747l-3.86 4.4747h-1.236V8.2027h1.915v4.4743l3.86-4.4743h1.236v7.5845h-1.915zM134.15 5.2445h1.327c0 .5464.452.9712 1.04.9712.589 0 1.056-.4248 1.056-.9712h1.312c0 1.335-1.056 2.3057-2.368 2.3057-1.311 0-2.367-.9707-2.367-2.3057zm3.935 10.5427v-4.4747l-3.859 4.4747h-1.237V8.2027h1.915v4.4743l3.86-4.4743H140v7.5845h-1.915zM56.0355 29.9448v-5.7187h-3.2866v5.7187H50.834v-7.5845h7.1169v7.5845h-1.9154zM61.974 26.1526c0 1.2439.935 2.0175 1.9452 2.0175.9948 0 1.9447-.7736 1.9447-2.0175s-.9499-2.0325-1.9447-2.0325c-1.0102 0-1.9452.7886-1.9452 2.0325zm5.8198 0c0 2.1541-1.7339 3.8829-3.8746 3.8829-2.1412 0-3.8601-1.7288-3.8601-3.8829 0-2.1541 1.7189-3.8984 3.8601-3.8984 2.1407 0 3.8746 1.7443 3.8746 3.8984zM70.6676 29.9448h-2.0358l3.4831-7.5845h1.2365l3.4826 7.5845h-2.0203l-2.0805-4.748-2.0656 4.748zM83.5795 29.9448V25.47l-3.8601 4.4748h-1.236v-7.5845h1.9144v4.4748l3.8601-4.4748h1.2365v7.5845h-1.9149zM91.6114 29.9448h-1.8999v-5.7187h-2.3521v-1.8658h6.6041v1.8658h-2.3521v5.7187zM97.1449 25.4701h3.4531c0-.1821-.061-.4248-.181-.6069-.257-.4854-.7992-.8492-1.5233-.8492-1.0246 0-1.7189.7281-1.7488 1.4561zm5.0661-1.1683c.317.698.332 1.7292.121 2.3817h-5.2627c0 1.0313.845 1.5927 1.8701 1.5927.7839 0 1.5976-.1822 2.2766-.5309l1.01 1.1073c-.814.6069-1.945 1.1829-3.2866 1.1829-2.2924 0-3.8452-1.6683-3.8452-3.8829 0-2.1541 1.4474-3.8984 3.7995-3.8984 1.6133 0 2.7443.7736 3.3173 2.0476zM105.758 29.9448h-2.217l2.94-3.9439-2.774-3.6406h2.216l1.674 2.0935 1.629-2.0935h2.201l-2.774 3.7162 2.955 3.8683h-2.217l-1.839-2.3362-1.794 2.3362zM27.8789 18.6545c0 .0075.0064.0134.0139.0134a.0133.0133 0 00.0133-.0134.0132.0132 0 00-.0133-.0133.0137.0137 0 00-.0139.0133zM27.8175 19.8216a.029.029 0 00-.0289.0288.029.029 0 00.0289.0289.029.029 0 00.0289-.0289.029.029 0 00-.0289-.0288zM27.6446 21.0268a.0503.0503 0 00-.0501-.0507.0504.0504 0 00-.0501.0507c0 .0278.0227.0503.0501.0503a.0503.0503 0 00.0501-.0503zM27.2268 22.0794a.087.087 0 100 .1744.0872.0872 0 000-.1744zM26.7198 23.1185a.132.132 0 00-.1319.1322.132.132 0 00.1319.1322.132.132 0 00.1315-.1322.132.132 0 00-.1315-.1322zM26.0815 24.1192a.1427.1427 0 00-.142.1429c0 .0789.064.1429.142.1429.0785 0 .142-.064.142-.1429a.1424.1424 0 00-.142-.1429zM25.4932 25.1853a.1714.1714 0 00-.1709-.172.1714.1714 0 00-.1709.172c0 .0949.0765.1719.1709.1719a.1714.1714 0 00.1709-.1719zM24.454 25.8228a.1822.1822 0 00-.1815.1826c0 .1008.0813.1822.1815.1822a.1818.1818 0 00.1815-.1822.1822.1822 0 00-.1815-.1826zM23.4909 26.5164a.1925.1925 0 00-.1921.1928c0 .107.0862.1933.1921.1933a.1927.1927 0 00.1922-.1933.1925.1925 0 00-.1922-.1928zM22.4473 27.0774a.2087.2087 0 00-.208.2092c0 .1153.0929.2088.208.2088a.2082.2082 0 00.2075-.2088.2086.2086 0 00-.2075-.2092zM21.3403 27.5156a.2113.2113 0 00-.2104.2117.211.211 0 00.2104.2117.211.211 0 00.2104-.2117.2113.2113 0 00-.2104-.2117zM20.1859 27.8087a.2158.2158 0 00-.2152.2165c0 .1202.0963.217.2152.217a.216.216 0 00.2157-.217.216.216 0 00-.2157-.2165zM19.0052 27.9535a.2213.2213 0 00-.221.2219c0 .123.0987.2223.221.2223a.2217.2217 0 00.221-.2223.2216.2216 0 00-.221-.2219zM17.8148 27.9535a.2213.2213 0 00-.221.2219c0 .123.0987.2223.221.2223a.2212.2212 0 00.2205-.2223.2212.2212 0 00-.2205-.2219zM16.8584 28.0252a.2265.2265 0 00-.2258-.2272.2267.2267 0 00-.2264.2272c0 .1259.1012.2277.2264.2277a.2267.2267 0 00.2258-.2277zM15.7165 27.7273a.2374.2374 0 00-.2369-.2379.2372.2372 0 00-.2364.2379c0 .1317.1059.2383.2364.2383a.2375.2375 0 00.2369-.2383zM14.6195 27.2865a.2477.2477 0 00-.247-.2485.2477.2477 0 00-.2475.2485.248.248 0 00.2475.2485.248.248 0 00.247-.2485zM13.5912 26.7092a.2638.2638 0 00-.2629-.2645.264.264 0 00-.2629.2645c0 .1463.118.265.2629.265a.2639.2639 0 00.2629-.265zM12.6573 26.0054a.2934.2934 0 00-.2923-.2941c-.1608 0-.2918.1318-.2918.2941 0 .1617.131.2935.2918.2935a.2932.2932 0 00.2923-.2935zM11.4967 25.4919a.306.306 0 00.3052-.3066.3063.3063 0 00-.3052-.3071c-.1681 0-.3048.1376-.3048.3071 0 .1691.1367.3066.3048.3066zM10.738 24.5928c.1816 0 .3289-.1482.3289-.3308 0-.1826-.1473-.3308-.3289-.3308-.1815 0-.3288.1482-.3288.3308 0 .1826.1473.3308.3288.3308zM10.4605 23.2507c0-.2001-.1613-.3624-.3601-.3624-.1989 0-.3602.1623-.3602.3624 0 .2.1613.3623.3602.3623.1988 0 .3601-.1623.3601-.3623zM9.5934 22.5396c.2046 0 .3707-.1671.3707-.373 0-.2058-.166-.3729-.3707-.3729-.2051 0-.3707.1671-.3707.3729 0 .2059.1656.373.3707.373zM9.2245 21.4211a.3927.3927 0 00.3919-.3938c0-.218-.1753-.3943-.392-.3943-.2161 0-.3914.1763-.3914.3943 0 .2175.1753.3938.3915.3938zM9.0017 20.2499c.2191 0 .3972-.1788.3972-.3996 0-.2204-.1781-.3992-.3972-.3992-.219 0-.3972.1788-.3972.3992 0 .2208.1781.3996.3972.3996zM8.927 19.0593c.222 0 .402-.1812.402-.4045 0-.2238-.18-.4049-.402-.4049-.2225 0-.4026.1811-.4026.4049 0 .2233.18.4045.4025.4045zM9.0016 17.8666c.2234 0 .405-.1826.405-.4073 0-.2253-.1816-.4079-.405-.4079-.2239 0-.405.1826-.405.4079 0 .2247.1811.4073.405.4073zM9.6326 16.2822c0-.2267-.1825-.4103-.4079-.4103-.2248 0-.4073.1836-.4073.4103 0 .2262.1825.4098.4073.4098.2254 0 .4078-.1836.4078-.4098zM9.5927 14.7196c-.2326 0-.4208.1894-.4208.4233 0 .2335.1882.4234.4208.4234.232 0 .4203-.1899.4203-.4234 0-.2339-.1882-.4233-.4203-.4233zM10.0998 13.6224c-.2397 0-.4338.1952-.4338.4365 0 .2412.194.4364.4338.4364.2393 0 .4339-.1952.4339-.4364 0-.2413-.1946-.4365-.4339-.4365zM10.7377 12.5868c-.2528 0-.4574.2064-.4574.4607 0 .2538.2046.4601.4574.4601.2528 0 .4574-.2063.4574-.4601 0-.2543-.2046-.4607-.4574-.4607zM11.4973 12.5951c.2586 0 .4685-.2107.4685-.4708 0-.2602-.2099-.4709-.4685-.4709-.2581 0-.468.2107-.468.4709 0 .2601.2099.4708.468.4708zM12.3646 10.8096c-.2715 0-.4916.2214-.4916.4946s.2201.4946.4916.4946c.2716 0 .4921-.2214.4921-.4946s-.2205-.4946-.4921-.4946zM13.3284 10.0947c-.2774 0-.5022.2262-.5022.5052 0 .279.2248.5052.5022.5052.2773 0 .5022-.2262.5022-.5052 0-.279-.2249-.5052-.5022-.5052zM14.3727 9.5125c-.2802 0-.5075.2286-.5075.5105 0 .2819.2273.5106.5075.5106.2802 0 .5075-.2287.5075-.5106 0-.2819-.2273-.5105-.5075-.5105zM15.4791 9.0634c-.2846 0-.5152.232-.5152.5183s.2306.5188.5152.5188c.2845 0 .5156-.2325.5156-.5188 0-.2862-.2311-.5183-.5156-.5183zM16.6328 8.7601c-.2875 0-.521.2345-.521.5237 0 .2891.2335.524.521.524.2874 0 .5205-.2349.5205-.524 0-.2892-.2331-.5237-.5205-.5237zM26.6338 13.0474c0-.3071-.247-.5556-.5522-.5556-.3048 0-.5523.2485-.5523.5556 0 .3067.2475.5556.5523.5556.3052 0 .5522-.2489.5522-.5556zM28.8411 18.6488a.0058.0058 0 00-.0057.0057c0 .003.0026.0056.0057.0056a.0057.0057 0 000-.0113zM28.7729 19.8296a.0211.0211 0 00-.0214.0209c0 .0122.0097.0215.0214.0215a.0212.0212 0 100-.0424zM28.5697 20.983a.0477.0477 0 00-.0472.0483c0 .0263.0212.0478.0472.0478a.0475.0475 0 00.0471-.0478.0476.0476 0 00-.0471-.0483zM28.2342 22.2606a.0793.0793 0 00.079-.0795.0789.0789 0 10-.1579 0c0 .0436.0356.0795.0789.0795zM27.6602 23.2845a.111.111 0 00.1102.1114.1111.1111 0 000-.2224.1108.1108 0 00-.1102.111zM27.1847 24.1956a.1317.1317 0 00-.1315.1322c0 .0732.0588.1323.1315.1323a.1317.1317 0 00.1314-.1323.1317.1317 0 00-.1314-.1322zM26.335 25.2971c0 .0833.0669.1511.1497.1511a.1504.1504 0 00.1497-.1511.1503.1503 0 00-.1497-.1506.1503.1503 0 00-.1497.1506zM25.6793 26.3469a.1661.1661 0 00.1656-.1667.166.166 0 00-.1656-.1666.166.166 0 00-.1656.1666c0 .0921.0741.1667.1656.1667zM24.7792 26.7824a.1818.1818 0 00-.1815.1826c0 .1007.0813.1821.1815.1821a.1818.1818 0 00.1815-.1821.1819.1819 0 00-.1815-.1826zM23.7957 27.8285a.1871.1871 0 00.1868-.1875.1875.1875 0 00-.1868-.1879.1871.1871 0 00-.1863.1879c0 .1037.0833.1875.1863.1875zM22.7428 28.4012a.2005.2005 0 00.1998-.201.2005.2005 0 00-.1998-.2011.2005.2005 0 00-.1998.2011c0 .1109.0895.201.1998.201zM21.4199 28.6346c0 .1187.0954.2146.2133.2146a.2136.2136 0 00.2128-.2146.2135.2135 0 00-.2128-.2141.2137.2137 0 00-.2133.2141zM20.2656 28.9393a.216.216 0 00.2153.217.216.216 0 00.2157-.217.2163.2163 0 00-.2157-.217.2163.2163 0 00-.2153.217zM19.0811 29.1098c0 .123.0991.2223.221.2223a.2217.2217 0 00.221-.2223.2216.2216 0 00-.221-.2219.2215.2215 0 00-.221.2219zM17.8906 29.1441c0 .1226.0987.2224.2205.2224a.2217.2217 0 00.221-.2224.2217.2217 0 00-.221-.2223.2216.2216 0 00-.2205.2223zM16.9255 29.2691a.227.227 0 00.2263-.2277.2269.2269 0 00-.2263-.2271.2269.2269 0 00-.2263.2271.227.227 0 00.2263.2277zM15.758 29.0366a.232.232 0 00.2311-.233.2318.2318 0 00-.2311-.2325.232.232 0 00-.2316.2325c0 .1288.1035.233.2316.233zM14.6255 28.6768a.2428.2428 0 00.2422-.2432.2429.2429 0 00-.2422-.2437.2427.2427 0 00-.2417.2437c0 .1342.1083.2432.2417.2432zM13.5419 28.1895a.2531.2531 0 00.2527-.2539.2533.2533 0 00-.2527-.2538.2533.2533 0 00-.2523.2538.253.253 0 00.2523.2539zM12.5219 27.5976a.2798.2798 0 00.2788-.2805.2794.2794 0 00-.2788-.2804.2794.2794 0 00-.2787.2804c0 .1546.1247.2805.2787.2805zM11.5788 26.887a.301.301 0 00.3-.3017.3008.3008 0 00-.3-.3013.3004.3004 0 00-.2995.3013c0 .1666.1339.3017.2995.3017zM10.7246 26.0678c.1743 0 .3158-.1424.3158-.3178a.3168.3168 0 00-.3158-.3172c-.1743 0-.3154.1424-.3154.3172 0 .1754.1411.3178.3154.3178zM9.9713 24.4814a.3404.3404 0 00-.3395.3415c0 .1884.1522.341.3395.341a.34.34 0 00.339-.341c0-.1889-.1517-.3415-.339-.3415zM9.327 24.1772a.3614.3614 0 00.3606-.3623c0-.2-.1613-.3623-.3606-.3623-.1989 0-.3602.1623-.3602.3623 0 .2001.1613.3623.3602.3623zM8.8014 23.1125c.2046 0 .3708-.1671.3708-.3729 0-.2059-.1662-.373-.3708-.373-.2046 0-.3707.1671-.3707.373 0 .2058.166.3729.3707.3729zM8.788 21.611c0-.2146-.1734-.389-.3867-.389-.2138 0-.3867.1744-.3867.389 0 .215.173.3889.3867.3889.2133 0 .3866-.1739.3866-.3889zM8.1311 20.8409c.2182 0 .3949-.1778.3949-.3967 0-.219-.1767-.3967-.3948-.3967-.2177 0-.3944.1777-.3944.3967 0 .2189.1767.3967.3944.3967zM7.9958 19.6561c.2206 0 .3997-.1802.3997-.4021 0-.2223-.1791-.402-.3997-.402a.4009.4009 0 00-.4001.402c0 .2219.1791.4021.4001.4021zM7.9962 18.463c.2234 0 .405-.1822.405-.4074 0-.2248-.1815-.4074-.405-.4074-.2239 0-.4054.1826-.4054.4074 0 .2252.1815.4074.4054.4074zM8.5388 16.8655c0-.2267-.1825-.4102-.4078-.4102-.2249 0-.4074.1835-.4074.4102 0 .2262.1825.4098.4074.4098.2253 0 .4078-.1836.4078-.4098zM8.814 15.698c0-.2291-.1849-.4151-.4126-.4151-.2282 0-.4131.186-.4131.4151 0 .2296.1849.4156.4131.4156.2277 0 .4126-.186.4126-.4156zM8.8017 14.149c-.231 0-.418.1885-.418.421 0 .232.187.4204.418.4204.2307 0 .418-.1884.418-.4204 0-.2325-.1873-.421-.418-.421zM9.7526 13.4945c0-.2368-.1906-.4286-.426-.4286-.235 0-.4257.1918-.4257.4286 0 .2369.1906.4287.4256.4287.2355 0 .4261-.1918.4261-.4287z" fill="#231F20"/><path d="M10.4209 12.4865c0-.25-.2017-.4524-.4497-.4524-.2485 0-.4497.2024-.4497.4524 0 .2499.2012.4524.4497.4524.248 0 .4497-.2025.4497-.4524zM11.1848 11.559c0-.2558-.2061-.4631-.4603-.4631-.2538 0-.4599.2073-.4599.4631 0 .2557.2061.463.4599.463.2542 0 .4603-.2073.4603-.463zM12.0625 10.7239c0-.2688-.2166-.4863-.4839-.4863-.2672 0-.4839.2175-.4839.4863 0 .2689.2167.4869.4839.4869.2673 0 .4839-.218.4839-.4869zM12.5219 10.4871c.2715 0 .4916-.2214.4916-.4946s-.2201-.4946-.4916-.4946c-.2716 0-.4916.2214-.4916.4946s.22.4946.4916.4946zM14.0435 9.3734c0-.279-.2249-.5052-.5022-.5052-.2774 0-.5022.2262-.5022.5052 0 .2795.2248.5057.5022.5057.2773 0 .5022-.2262.5022-.5057zM15.1327 8.876c0-.2819-.2273-.5105-.5075-.5105-.2803 0-.5075.2286-.5075.5105 0 .282.2272.5106.5075.5106.2802 0 .5075-.2286.5075-.5106zM16.2764 8.5058c0-.2882-.2321-.5212-.5181-.5212-.286 0-.5181.233-.5181.5212 0 .2878.2321.5207.5181.5207.286 0 .5181-.233.5181-.5207zM17.4486 8.2675c0-.2907-.2345-.526-.5234-.526s-.5233.2353-.5233.526c0 .291.2344.5265.5233.5265s.5234-.2354.5234-.5265zM29.7887 18.6436a.0106.0106 0 00-.0104.0109c0 .0059.0045.0108.0104.0108a.0107.0107 0 00.0109-.0108.0107.0107 0 00-.0109-.0109zM29.6978 19.8514a.029.029 0 00.0288.0289.029.029 0 00.0289-.0289.029.029 0 00-.0289-.0289.029.029 0 00-.0288.0289zM29.5904 21.0342a.0503.0503 0 00-.0501-.0503.0504.0504 0 00-.0501.0503c0 .0283.0227.0507.0501.0507a.0503.0503 0 00.0501-.0507zM29.2321 22.1022a.0896.0896 0 00-.0895.0901c0 .0494.0399.09.0895.09a.09.09 0 000-.1801zM28.7129 23.3107c0 .0513.0414.093.092.093a.0923.0923 0 00.0919-.093.0922.0922 0 00-.0919-.0925.0925.0925 0 00-.092.0925zM28.2643 24.511a.132.132 0 00.1314-.1322.132.132 0 00-.1314-.1327.1322.1322 0 00-.1315.1327.132.132 0 00.1315.1322zM27.479 25.3834a.137.137 0 00.1367.1376.1371.1371 0 00.1368-.1376.137.137 0 00-.1368-.1375.137.137 0 00-.1367.1375zM26.7139 26.3149a.1527.1527 0 10.3052 0 .1531.1531 0 00-.1526-.1536.1531.1531 0 00-.1526.1536zM26.0234 26.9872a.1746.1746 0 00-.1738.1749c0 .0964.078.1744.1738.1744a.1738.1738 0 00.1734-.1744.1743.1743 0 00-.1734-.1749zM24.9092 27.9163c0 .1051.0847.1904.1892.1904a.19.19 0 00.1897-.1904.1899.1899 0 00-.1897-.1903.1897.1897 0 00-.1892.1903zM24.2962 28.5687a.1979.1979 0 00-.1969-.1986.1983.1983 0 00-.1974.1986c0 .1095.0885.1986.1974.1986a.1978.1978 0 00.1969-.1986zM23.2456 29.1126a.2081.2081 0 00-.2075-.2087.2082.2082 0 00-.208.2087c0 .1153.0929.2088.208.2088a.2082.2082 0 00.2075-.2088zM22.1362 29.5424a.2107.2107 0 00-.2105-.2117.211.211 0 00-.2104.2117c0 .1167.0944.2112.2104.2112a.2106.2106 0 00.2105-.2112zM20.9934 29.8524a.219.219 0 00-.2182-.2199.2191.2191 0 00-.2186.2199.219.219 0 00.2186.2194.219.219 0 00.2182-.2194zM19.8199 30.0399a.2214.2214 0 00-.221-.2224.2213.2213 0 00-.2205.2224c0 .1225.0987.2223.2205.2223a.2217.2217 0 00.221-.2223zM18.6305 30.1023a.2216.2216 0 00-.221-.2218.2216.2216 0 00-.221.2218c0 .123.0992.2223.221.2223a.2217.2217 0 00.221-.2223zM17.4406 30.0399a.2214.2214 0 00-.2206-.2224.2214.2214 0 00-.221.2224c0 .1225.0987.2223.221.2223a.2217.2217 0 00.2206-.2223zM16.2752 29.8523a.2321.2321 0 00-.2316-.233.232.232 0 00-.2311.233c0 .1284.1035.2325.2311.2325a.232.232 0 00.2316-.2325zM15.1376 29.5423a.245.245 0 00-.2446-.2461.245.245 0 00-.2446.2461.245.245 0 00.2446.2455.245.245 0 00.2446-.2455zM14.0306 29.1127a.2506.2506 0 00-.2495-.2514.2508.2508 0 00-.2499.2514c0 .139.1118.2514.2499.2514a.2504.2504 0 00.2495-.2514zM12.9875 28.5688a.2687.2687 0 00-.2681-.2698.269.269 0 00-.2682.2698.269.269 0 00.2682.2698.2687.2687 0 00.2681-.2698zM11.7211 28.2045a.2873.2873 0 00.2864-.2882c0-.1593-.128-.2887-.2864-.2887-.1585 0-.2865.1294-.2865.2887 0 .1589.128.2882.2865.2882zM10.7955 27.4662a.3032.3032 0 00.3024-.3041.3032.3032 0 00-.3024-.3042.3034.3034 0 00-.3023.3042c0 .168.1357.3041.3023.3041zM9.953 25.997c-.1742 0-.3153.1425-.3153.3178 0 .1754.141.3173.3154.3173a.3161.3161 0 00.3153-.3173c0-.1753-.141-.3178-.3153-.3178zM9.2032 25.7273c.1887 0 .3418-.154.3418-.3439 0-.1899-.153-.3439-.3418-.3439s-.3419.154-.3419.3439c0 .1899.1531.3439.3419.3439zM8.5546 24.0265c-.193 0-.3495.1575-.3495.3522 0 .1942.1565.3516.3495.3516.1931 0 .3496-.1574.3496-.3516 0-.1947-.1565-.3522-.3496-.3522zM8.0143 23.6836c.2046 0 .3707-.1666.3707-.373 0-.2058-.166-.373-.3707-.373-.2046 0-.3708.1672-.3708.373 0 .2064.1662.373.3708.373zM7.9664 22.1923c0-.2103-.1695-.3812-.379-.3812-.209 0-.3784.1709-.3784.3812 0 .2102.1695.3807.3784.3807a.3797.3797 0 00.379-.3807zM7.2791 21.4317c.2181 0 .3943-.1778.3943-.3972 0-.2189-.1762-.3967-.3943-.3967-.2176 0-.3943.1778-.3943.3967 0 .2194.1767.3972.3943.3972zM7.4926 19.8512c0-.2219-.1786-.402-.3996-.402-.2205 0-.3996.1801-.3996.402 0 .2223.179.402.3996.402.221 0 .3996-.1797.3996-.402zM7.0305 18.2499c-.2225 0-.4026.1811-.4026.4049 0 .2233.1801.4045.4026.4045.222 0 .402-.1812.402-.4045 0-.2238-.18-.4049-.402-.4049zM7.0924 17.0504c-.2234 0-.4049.1827-.4049.4074 0 .2252.1815.4074.405.4074.2238 0 .4049-.1822.4049-.4074 0-.2247-.181-.4074-.405-.4074zM7.692 16.2745c0-.2291-.185-.4151-.4131-.4151-.2278 0-.4127.186-.4127.4151 0 .2296.1849.4156.4127.4156.2282 0 .413-.186.413-.4156zM7.5873 15.5406c.2326 0 .4209-.1899.4209-.4234 0-.2339-.1883-.4233-.4209-.4233-.232 0-.4203.1894-.4203.4233 0 .2335.1883.4234.4203.4234zM8.4373 13.9983c0-.2349-.1892-.4258-.4233-.4258-.234 0-.4232.1909-.4232.4258 0 .2354.1893.4263.4232.4263.234 0 .4233-.1909.4233-.4263zM8.9968 12.9308c0-.2456-.1979-.4442-.442-.4442s-.4415.1986-.4415.4442c0 .2455.1974.4446.4415.4446s.442-.1991.442-.4446zM9.6533 11.9257c0-.2495-.2012-.4519-.4497-.4519-.248 0-.4497.2024-.4497.4519 0 .2499.2018.4524.4497.4524.2485 0 .4497-.2025.4497-.4524z" fill="#231F20"/><path d="M10.4185 10.9947c0-.2587-.2085-.4684-.4656-.4684s-.4656.2097-.4656.4684c0 .2586.2085.4684.4656.4684s.4656-.2098.4656-.4684zM10.795 10.6261c.2629 0 .4762-.2141.4762-.4786s-.2133-.479-.4762-.479c-.2628 0-.4757.2146-.4757.479 0 .2645.2129.4786.4757.4786zM11.7216 9.8854c.2701 0 .4892-.2204.4892-.4921 0-.2717-.2191-.4921-.4892-.4921s-.4892.2204-.4892.4921c0 .2717.2191.4921.4892.4921zM13.2198 8.7407c0-.2776-.2234-.5028-.4998-.5028-.2759 0-.4993.2252-.4993.5028 0 .2775.2234.5023.4993.5023.2764 0 .4998-.2248.4998-.5023zM13.7814 8.7073c.2802 0 .5075-.2287.5075-.5106 0-.2824-.2273-.5105-.5075-.5105-.2807 0-.5075.2281-.5075.5105 0 .282.2268.5106.5075.5106zM14.8936 8.283c.2832 0 .5128-.231.5128-.5158 0-.2849-.2296-.516-.5128-.516-.2831 0-.5127.2311-.5127.516 0 .2848.2296.5158.5127.5158zM16.0434 6.9335c-.2874 0-.5205.2345-.5205.5236 0 .2892.2331.5237.5205.5237.288 0 .521-.2345.521-.5236 0-.2892-.233-.5237-.521-.5237zM27.6162 12.4866c.3076 0 .5575-.2509.5575-.561 0-.3095-.2499-.5604-.5575-.5604-.3077 0-.5576.2509-.5576.5604 0 .3101.2499.561.5576.561zM30.7371 18.6488a.0058.0058 0 00-.0057.0057c0 .003.0026.0056.0057.0056a.0057.0057 0 000-.0113zM30.6793 19.823a.029.029 0 00-.0289.0289.029.029 0 00.0289.0289.0287.0287 0 00.0289-.0289.0287.0287 0 00-.0289-.0289zM30.5074 21.0088a.029.029 0 00-.0289.0289.029.029 0 00.0289.0289.029.029 0 00.0289-.0289.029.029 0 00-.0289-.0289zM30.2225 22.2828a.0818.0818 0 00.0814-.0818.082.082 0 00-.0814-.0824.0816.0816 0 00-.0814.0824c0 .045.0361.0818.0814.0818zM29.7402 23.3311a.087.087 0 00.0867.0877.0873.0873 0 00.0867-.0877.0872.0872 0 00-.0867-.0872.087.087 0 00-.0867.0872zM29.2017 24.418a.124.124 0 00.1232.1245.1241.1241 0 00.1238-.1245.1241.1241 0 00-.1238-.1245.124.124 0 00-.1232.1245zM28.5977 25.4506a.124.124 0 00.1237.1245.124.124 0 00.1237-.1245.124.124 0 00-.1237-.124.124.124 0 00-.1237.124zM28.0214 26.2752a.1447.1447 0 00-.1444.1453c0 .0804.0645.1453.1444.1453a.1447.1447 0 00.1444-.1453.1447.1447 0 00-.1444-.1453zM27.3972 27.3176a.1665.1665 0 00-.1661-.1667.1658.1658 0 00-.1652.1667c0 .092.0737.1666.1652.1666a.1665.1665 0 00.1661-.1666zM26.1777 28.1332a.182.182 0 00.1816.1827.182.182 0 00.1815-.1827.1818.1818 0 00-.1815-.1821.1818.1818 0 00-.1816.1821zM25.6045 28.8612a.1926.1926 0 00-.1922-.1932.1922.1922 0 00-.1916.1932.192.192 0 00.1916.1928.1925.1925 0 00.1922-.1928zM24.4009 29.6968a.2028.2028 0 00.2023-.2034.2032.2032 0 00-.2023-.2039.2033.2033 0 00-.2027.2039.203.203 0 00.2027.2034zM23.333 30.2335a.2083.2083 0 00.2075-.2092.2082.2082 0 00-.2075-.2088.2082.2082 0 00-.2075.2088c0 .1157.0929.2092.2075.2092zM22.2192 30.6614c.116 0 .2104-.095.2104-.2117a.211.211 0 00-.2104-.2117.211.211 0 00-.2104.2117c0 .1167.0944.2117.2104.2117zM21.0702 30.981a.2163.2163 0 00.2157-.217.2162.2162 0 00-.2157-.2166.216.216 0 00-.2157.2166.216.216 0 00.2157.217zM19.8959 31.1854a.2186.2186 0 00.2181-.2194.2186.2186 0 00-.2181-.2194.219.219 0 00-.2182.2194.219.219 0 00.2182.2194zM18.7073 31.2751a.2217.2217 0 00.221-.2224.222.222 0 00-.221-.2223.222.222 0 00-.221.2223c0 .1231.0992.2224.221.2224zM17.5169 31.2459a.2212.2212 0 00.2205-.2223.2212.2212 0 00-.2205-.2219.2213.2213 0 00-.221.2219c0 .123.0987.2223.221.2223zM16.3347 31.1069a.2266.2266 0 00.2258-.2277.227.227 0 00-.2258-.2277.227.227 0 00-.2263.2277c0 .126.1011.2277.2263.2277zM15.1706 30.8483a.2268.2268 0 00.2263-.2277.2266.2266 0 00-.2263-.2272.227.227 0 00-.2263.2272.227.227 0 00.2263.2277zM14.038 30.4991a.248.248 0 00.2475-.2485.2477.2477 0 00-.2475-.2485.2477.2477 0 00-.247.2485.248.248 0 00.247.2485zM12.9461 30.0287a.2558.2558 0 00.2552-.2567.2558.2558 0 00-.2552-.2568.2561.2561 0 00-.2552.2568.256.256 0 00.2552.2567zM12.1864 29.1897c0-.1564-.1257-.2834-.2812-.2834s-.2812.127-.2812.2834a.282.282 0 00.2812.2829.282.282 0 00.2812-.2829zM11.2164 28.5086a.2925.2925 0 00-.2918-.2935.2925.2925 0 00-.2918.2935c0 .1623.1305.2941.2918.2941s.2918-.1318.2918-.2941zM10.0143 28.0403a.3032.3032 0 00.3024-.3042.3032.3032 0 00-.3024-.3042.3032.3032 0 00-.3024.3042c0 .1681.1353.3042.3024.3042zM9.1826 27.196a.3166.3166 0 00.3158-.3173c0-.1753-.1415-.3177-.3158-.3177-.1743 0-.3154.1424-.3154.3177 0 .1754.141.3173.3154.3173zM8.4366 26.2882c.1887 0 .3418-.154.3418-.3439 0-.1899-.153-.3439-.3418-.3439s-.3419.154-.3419.3439c0 .1899.1532.3439.3419.3439zM8.1251 24.9417a.3426.3426 0 00-.3418-.3435.3426.3426 0 00-.3419.3435c0 .1903.1531.3439.3419.3439a.3427.3427 0 00.3418-.3439zM7.2301 24.2538c.2046 0 .3708-.1671.3708-.373s-.1662-.373-.3708-.373c-.205 0-.3707.1671-.3707.373s.1656.373.3707.373zM7.1597 22.7711c0-.2107-.1695-.3812-.3784-.3812-.2095 0-.379.1705-.379.3812 0 .2103.1695.3808.379.3808.209 0 .3784-.1705.3784-.3808zM6.4403 22.0169c.2167 0 .392-.1768.392-.3943 0-.2175-.1753-.3943-.392-.3943-.2162 0-.3915.1768-.3915.3943 0 .2175.1753.3943.3915.3943zM6.2117 20.8432c.2177 0 .3944-.1773.3944-.3967 0-.219-.1767-.3967-.3944-.3967-.2176 0-.3943.1777-.3943.3967 0 .2194.1767.3967.3943.3967zM6.0969 19.6561c.221 0 .3996-.1802.3996-.4021 0-.2223-.1786-.402-.3996-.402-.2205 0-.3996.1797-.3996.402 0 .2219.179.4021.3996.4021zM6.0963 18.463c.224 0 .405-.1827.405-.4074 0-.2253-.181-.4074-.405-.4074-.2234 0-.4049.1821-.4049.4074 0 .2247.1815.4074.405.4074zM6.2116 17.2698c.2239 0 .405-.1821.405-.4073 0-.2248-.1811-.4069-.405-.4069-.224 0-.405.1821-.405.4069 0 .2252.181.4073.405.4073zM6.8507 15.687c0-.2282-.1834-.4127-.4102-.4127-.2263 0-.4102.1845-.4102.4127 0 .2276.1839.4127.4102.4127.2268 0 .4102-.1851.4102-.4127zM6.7808 14.9565c.2291 0 .4155-.1869.4155-.418 0-.231-.1864-.418-.4155-.418-.2297 0-.4156.187-.4156.418 0 .2311.1859.418.4156.418zM6.8096 13.4288c0 .2334.1882.4233.4208.4233.232 0 .4203-.1899.4203-.4233 0-.234-.1882-.4234-.4203-.4234-.2326 0-.4208.1894-.4208.4234zM8.2277 12.3674c0-.2465-.1989-.4471-.4444-.4471-.2451 0-.4444.2006-.4444.4471 0 .2471.1993.4471.4444.4471.2455 0 .4444-.2.4444-.4471zM8.4366 10.9152c-.247 0-.4469.2015-.4469.45s.1999.4495.4469.4495c.247 0 .4468-.201.4468-.4495s-.1998-.45-.4468-.45z" fill="#231F20"/><path d="M9.6423 10.4308c0-.2558-.206-.463-.4603-.463-.2542 0-.4603.2072-.4603.463 0 .2557.206.4631.4603.4631.2542 0 .4603-.2074.4603-.4631zM10.0139 9.1026c-.2585 0-.468.2107-.468.4708s.2095.4709.468.4709c.2586 0 .468-.2108.468-.4709 0-.26-.2094-.4708-.468-.4708zM10.9243 9.2872c.2673 0 .4839-.218.4839-.4868 0-.2689-.2166-.4869-.4839-.4869-.2672 0-.4839.218-.4839.4869 0 .2688.2167.4868.4839.4868zM11.4136 8.1198c0 .2732.22.4946.4916.4946.2715 0 .4916-.2214.4916-.4946s-.2201-.4945-.4916-.4945c-.2716 0-.4916.2213-.4916.4945zM13.4482 7.5376c0-.279-.2248-.5052-.5022-.5052-.2773 0-.5022.2262-.5022.5052 0 .279.2249.5052.5022.5052.2774 0 .5022-.2262.5022-.5052zM14.5457 7.059c0-.2819-.2272-.5105-.5074-.5105-.2803 0-.5075.2286-.5075.5105 0 .282.2272.5106.5075.5106.2802 0 .5074-.2287.5074-.5106zM15.6914 6.6884c0-.2892-.2331-.5236-.5205-.5236-.2875 0-.5205.2344-.5205.5236 0 .2897.233.5241.5205.5241.2874 0 .5205-.2344.5205-.524zM16.8607 6.4298c0-.292-.2355-.529-.5258-.529-.2909 0-.5263.237-.5263.529 0 .2926.2354.5294.5263.5294.2903 0 .5258-.2368.5258-.5294zM31.6859 18.6459c-.0046 0-.0082.004-.0082.0086a.008.008 0 00.0082.0081c.0045 0 .0086-.0036.0086-.0081a.0089.0089 0 00-.0086-.0086zM31.632 19.8258a.0259.0259 0 00-.026.026.026.026 0 00.026.0265.026.026 0 00.0264-.0265.026.026 0 00-.0264-.026zM31.5163 21.039a.045.045 0 00-.0448-.0453.0453.0453 0 000 .0907.045.045 0 00.0448-.0454zM31.2811 22.2077a.0742.0742 0 00-.0736-.0741.074.074 0 00-.0737.0741.0736.0736 0 10.1473 0zM30.839 23.4429a.0951.0951 0 00.0949-.0955.0953.0953 0 00-.0949-.0954.0952.0952 0 00-.0944.0954.095.095 0 00.0944.0955zM30.371 24.3386a.1103.1103 0 00-.1103.1109.1103.1103 0 10.2206 0 .1103.1103 0 00-.1103-.1109zM29.8063 25.632a.127.127 0 00.1262-.127.127.127 0 00-.1262-.1273.1271.1271 0 000 .2543zM29.0156 26.5047c0 .0746.0602.1352.1344.1352a.1347.1347 0 00.1338-.1352.1345.1345 0 00-.1338-.1346.1347.1347 0 00-.1344.1346zM28.4075 27.2885a.1532.1532 0 00-.1526.1535.1527.1527 0 10.3052 0 .153.153 0 00-.1526-.1535zM27.416 28.3081c0 .0935.0751.1695.1681.1695a.1692.1692 0 00.1685-.1695.1693.1693 0 00-.1685-.1696.1689.1689 0 00-.1681.1696zM26.687 29.274a.1768.1768 0 00.1762-.1772.1768.1768 0 00-.1762-.1773.1769.1769 0 00-.1763.1773c0 .0978.079.1772.1763.1772zM25.7234 29.9913a.1897.1897 0 00.1892-.1903.1898.1898 0 00-.1892-.1904.1895.1895 0 00-.1892.1904c0 .1051.0842.1903.1892.1903zM24.7008 30.6138a.1975.1975 0 00.197-.1981.198.198 0 00-.197-.1986.1983.1983 0 00-.1974.1986c0 .1095.0886.1981.1974.1981zM23.6274 31.1447a.2083.2083 0 00.2076-.2092.2082.2082 0 00-.2076-.2088.2083.2083 0 00-.208.2088c0 .1157.093.2092.208.2092zM22.5121 31.5709a.2136.2136 0 00.2129-.2141.2137.2137 0 00-.2129-.2146.2138.2138 0 00-.2133.2146c0 .1182.0954.2141.2133.2141zM21.3641 31.8926a.2162.2162 0 00.2153-.217.216.216 0 00-.2153-.217.216.216 0 00-.2157.217c0 .1197.0963.217.2157.217zM20.1917 32.1091a.219.219 0 00.2186-.2194.219.219 0 00-.2186-.2199.219.219 0 00-.2181.2199c0 .1211.0978.2194.2181.2194zM19.0052 32.2191a.2214.2214 0 00.221-.2224.2212.2212 0 00-.221-.2218.2216.2216 0 00-.221.2218c0 .1231.0992.2224.221.2224zM17.8142 32.2219a.2243.2243 0 00.2234-.2252.2243.2243 0 00-.2234-.2248.2243.2243 0 00-.2234.2248c0 .1245.1002.2252.2234.2252zM16.6277 32.1144a.2242.2242 0 00.2234-.2247.2244.2244 0 00-.2234-.2253.2244.2244 0 00-.2234.2253c0 .124.1001.2247.2234.2247zM15.4558 31.9032a.227.227 0 00.2258-.2277.2266.2266 0 00-.2258-.2276.2267.2267 0 00-.2263.2276.227.227 0 00.2263.2277zM14.3072 31.5947a.2372.2372 0 00.2364-.2378.2373.2373 0 00-.2364-.2383.2374.2374 0 00-.2369.2383c0 .1313.1059.2378.2369.2378zM13.1918 31.1869a.2504.2504 0 00.2499-.2514.2503.2503 0 00-.2499-.2509.2502.2502 0 00-.2494.2509c0 .139.1117.2514.2494.2514zM12.1183 30.6879c.1497 0 .271-.122.271-.2722a.2718.2718 0 00-.271-.2727.2718.2718 0 00-.2706.2727c0 .1502.1213.2722.2706.2722zM11.0961 30.0839a.282.282 0 00.2812-.2829.282.282 0 00-.2812-.2829.2821.2821 0 00-.2816.2829c0 .1564.1261.2829.2816.2829zM10.1326 29.3902a.2928.2928 0 00.2918-.2935.2925.2925 0 00-.2918-.2936.2925.2925 0 00-.2918.2936c0 .1617.1305.2935.2918.2935zM9.2353 28.623a.314.314 0 00.313-.3149.3139.3139 0 00-.313-.3148.3139.3139 0 00-.313.3148.314.314 0 00.313.3149zM8.412 27.77c.18 0 .3259-.1467.3259-.3279a.3268.3268 0 00-.326-.3279c-.18 0-.326.1467-.326.3279 0 .1812.146.3279.326.3279zM7.669 26.1608c-.1887 0-.3418.154-.3418.3439 0 .1899.153.3439.3418.3439s.3419-.154.3419-.3439c0-.1899-.1531-.3439-.3419-.3439zM7.3684 25.505c0-.1971-.1589-.3575-.3549-.3575-.196 0-.3553.1604-.3553.3575s.1594.357.3553.357c.196 0 .3549-.1599.3549-.357zM6.4484 24.8225c.2051 0 .3707-.1671.3707-.373 0-.2058-.1656-.3729-.3707-.3729-.2046 0-.3708.1671-.3708.3729 0 .2059.1662.373.3708.373zM5.9806 23.7234c.206 0 .3731-.1685.3731-.3758 0-.2074-.167-.3754-.3731-.3754-.2061 0-.3732.168-.3732.3754 0 .2073.1671.3758.3732.3758zM5.6117 22.5967c.2138 0 .3867-.1739.3867-.3889 0-.2146-.1729-.389-.3867-.389-.2133 0-.3861.1744-.3861.389 0 .215.1728.3889.3861.3889zM5.7447 21.0394c0-.2204-.1782-.3996-.3973-.3996-.219 0-.3972.1792-.3972.3996s.1782.3996.3972.3996c.2191 0 .3973-.1792.3973-.3996zM5.1877 20.2537c.2205 0 .3997-.1797.3997-.402 0-.2219-.1791-.4021-.3997-.4021-.221 0-.3996.1802-.3996.4021 0 .2223.1786.402.3996.402zM5.536 18.6548c0-.2238-.18-.4049-.402-.4049-.2225 0-.4026.1811-.4026.4049 0 .2233.1801.4045.4026.4045.222 0 .402-.1812.402-.4045zM5.1872 17.0501c-.224 0-.405.1826-.405.4073 0 .2253.181.4074.405.4074.2234 0 .4049-.1821.4049-.4074 0-.2247-.1815-.4073-.405-.4073zM5.757 16.2702c0-.2282-.184-.4127-.4102-.4127-.2268 0-.4103.1845-.4103.4127 0 .2276.1835.4127.4103.4127.2263 0 .4102-.1851.4102-.4127zM5.6118 15.5168c.2283 0 .4132-.186.4132-.4151 0-.2296-.185-.4156-.4132-.4156-.2277 0-.4126.186-.4126.4156 0 .2291.185.4151.4126.4151zM5.5625 13.9621c0 .232.1868.4204.418.4204.231 0 .4179-.1884.4179-.4204 0-.2325-.1868-.421-.418-.421-.231 0-.4179.1885-.4179.421zM6.0254 12.8601c0 .2349.1897.4258.4232.4258.234 0 .4237-.1909.4237-.4258 0-.2354-.1897-.4263-.4237-.4263-.2335 0-.4232.1909-.4232.4263zM6.5742 11.8045c0 .2441.1965.4418.4391.4418.2422 0 .4392-.1977.4392-.4418 0-.2441-.197-.4417-.4392-.4417-.2426 0-.439.1976-.439.4417zM7.2222 10.8043c0 .2485.2003.45.4473.45.2465 0 .4468-.2015.4468-.45s-.2003-.4495-.4468-.4495c-.247 0-.4473.201-.4473.4495z" fill="#231F20"/><path d="M8.412 10.3306c.2542 0 .4603-.2074.4603-.4631 0-.2558-.2061-.463-.4603-.463-.2543 0-.4599.2072-.4599.463 0 .2557.2057.4631.4599.4631zM9.2356 8.5306c-.2586 0-.468.2108-.468.4709 0 .26.2094.4708.468.4708.2585 0 .468-.2107.468-.4708s-.2095-.4709-.468-.4709zM10.1323 7.726c-.2672 0-.4839.218-.4839.4868 0 .2689.2167.4869.4839.4869.2673 0 .4839-.218.4839-.4869 0-.2688-.2166-.4868-.4839-.4868zM11.0961 7.0164c-.2701 0-.4892.2204-.4892.4921 0 .2718.2191.4917.4892.4917s.4887-.22.4887-.4917c0-.2717-.2186-.4921-.4887-.4921zM12.6159 6.8938c0-.276-.223-.4998-.4974-.4998-.2745 0-.4969.2237-.4969.4998 0 .2762.2224.5.4969.5.2744 0 .4974-.2238.4974-.5zM13.6967 6.3735c0-.2804-.2258-.5076-.5051-.5076-.2788 0-.5046.2272-.5046.5076 0 .281.2258.5081.5046.5081.2793 0 .5051-.2271.5051-.508zM14.3077 5.4344c-.2846 0-.5157.232-.5157.5183s.2311.5183.5157.5183c.2845 0 .5152-.232.5152-.5183s-.2307-.5183-.5152-.5183zM15.456 5.105c-.2909 0-.5263.2369-.5263.529 0 .292.2354.5289.5263.5289.2903 0 .5257-.2369.5257-.529 0-.292-.2354-.5289-.5257-.5289zM29.1504 11.3627c.3062 0 .5547-.2499.5547-.5585 0-.308-.2485-.558-.5547-.558-.3067 0-.5552.25-.5552.558 0 .3086.2485.5585.5552.5585zM32.6345 18.6488a.0057.0057 0 00-.0056.0057c0 .003.0026.0056.0056.0056a.0057.0057 0 00.0057-.0056.0058.0058 0 00-.0057-.0057zM32.5845 19.8305a.0212.0212 0 00-.021.0215c0 .0117.0092.0215.021.0215a.0216.0216 0 00.0214-.0215.0216.0216 0 00-.0214-.0215zM32.4792 21.0405a.0449.0449 0 10-.0896 0 .045.045 0 00.0448.0454.045.045 0 00.0448-.0454zM32.2525 22.213a.066.066 0 00-.0654-.0668.0662.0662 0 00-.066.0668c0 .0366.0294.0664.066.0664a.066.066 0 00.0654-.0664zM31.9344 23.3607a.0925.0925 0 00-.092-.0925.0926.0926 0 000 .185.0922.0922 0 00.092-.0925zM31.312 24.4752c0 .0509.0409.0925.092.0925a.0925.0925 0 00.0919-.0925.0927.0927 0 00-.0919-.093.0924.0924 0 00-.092.093zM30.9928 25.5486a.119.119 0 00-.1185-.1191.1186.1186 0 00-.1184.1191c0 .0654.0529.1187.1184.1187a.119.119 0 00.1185-.1187zM30.2573 26.7136a.1397.1397 0 00.1396-.14.1393.1393 0 10-.2787 0c0 .0775.0621.14.1391.14zM29.5571 27.4004a.1424.1424 0 00-.1421.1429c0 .0784.0636.1429.1421.1429a.1427.1427 0 00.142-.1429.1424.1424 0 00-.142-.1429zM28.6157 28.4505c0 .0901.0727.1637.1628.1637.09 0 .1632-.0736.1632-.1637a.1638.1638 0 00-.1632-.1642.1634.1634 0 00-.1628.1642zM27.9268 29.1195a.1688.1688 0 00-.168.1696.1683.1683 0 10.3366 0 .1693.1693 0 00-.1686-.1696zM27.0096 30.2355a.1823.1823 0 00.1816-.1826.1823.1823 0 00-.1816-.1827.1823.1823 0 00-.1815.1827c0 .1007.0814.1826.1815.1826zM26.0314 30.9326a.1953.1953 0 00.195-.1957.1953.1953 0 00-.195-.1957.1952.1952 0 00-.1945.1957c0 .108.0872.1957.1945.1957zM24.9996 31.5394a.2027.2027 0 00.2022-.2034.2032.2032 0 00-.2022-.2039.2033.2033 0 00-.2027.2039c0 .1124.0905.2034.2027.2034zM23.9214 32.0554a.2083.2083 0 00.2075-.2092.2082.2082 0 00-.2075-.2088.2082.2082 0 00-.2075.2088c0 .1157.0929.2092.2075.2092zM22.8051 32.4758a.2112.2112 0 00.2104-.2116.2109.2109 0 00-.2104-.2117.211.211 0 00-.2104.2117c0 .1167.0944.2116.2104.2116zM21.6576 32.8033a.2167.2167 0 00.2157-.217.2166.2166 0 00-.2157-.217.2166.2166 0 00-.2157.217c0 .1196.0968.217.2157.217zM20.4881 33.0305a.219.219 0 00.2181-.2195.219.219 0 00-.2181-.2199.2191.2191 0 00-.2186.2199.219.219 0 00.2186.2195zM19.303 33.1583a.2216.2216 0 00.221-.2224.2215.2215 0 00-.221-.2218.2216.2216 0 00-.221.2218c0 .1231.0992.2224.221.2224zM18.1111 33.1835a.2217.2217 0 00.221-.2224.2217.2217 0 00-.221-.2223.2216.2216 0 00-.2205.2223c0 .1226.0987.2224.2205.2224zM16.9226 33.1108a.2238.2238 0 00.2234-.2247.2236.2236 0 00-.2234-.2248.224.224 0 00-.2234.2248c0 .124.1002.2247.2234.2247zM15.7449 32.9385a.2266.2266 0 00.2258-.2277.2266.2266 0 00-.2258-.2272.2267.2267 0 00-.2263.2272c0 .126.1011.2277.2263.2277zM14.5846 32.67a.232.232 0 00.2311-.2329.232.232 0 00-.2311-.2326.232.232 0 00-.2316.2326.232.232 0 00.2316.2329zM13.4522 32.3076a.2403.2403 0 00.2393-.2407.24.24 0 00-.2393-.2408.2398.2398 0 00-.2393.2408.24.24 0 00.2393.2407zM12.3535 31.8508a.248.248 0 00.247-.2485.248.248 0 00-.247-.2485.2477.2477 0 00-.2471.2485c0 .1371.1103.2485.2471.2485zM11.2973 31.3279a.2798.2798 0 00.2788-.2805.2794.2794 0 00-.2788-.2804.2797.2797 0 00-.2787.2804c0 .1545.1251.2805.2787.2805zM10.2918 30.6985a.2924.2924 0 00.2918-.2935.2924.2924 0 00-.2918-.2935.2924.2924 0 00-.2918.2935c0 .1623.1305.2935.2918.2935zM9.343 29.9793a.2982.2982 0 00.2975-.2989.2982.2982 0 00-.2975-.2988.2981.2981 0 00-.2971.2988c0 .1652.1334.2989.297.2989zM8.4576 29.1884c.17 0 .3077-.1386.3077-.3096a.3085.3085 0 00-.3077-.3095.3085.3085 0 00-.3077.3095c0 .171.1377.3096.3077.3096zM7.6415 27.6876a.3162.3162 0 00-.3153.3173c0 .1753.141.3172.3153.3172a.3166.3166 0 00.316-.3172.3166.3166 0 00-.316-.3173zM6.902 27.4067a.3402.3402 0 00.3394-.341c0-.1884-.1521-.3415-.3394-.3415-.1873 0-.339.1531-.339.3415 0 .1885.1517.341.339.341zM6.5898 26.0674c0-.1928-.1555-.3493-.3471-.3493-.1917 0-.3472.1565-.3472.3493s.1555.3492.3472.3492c.1916 0 .3471-.1564.3471-.3492zM5.6688 25.3771c.1979 0 .3577-.1613.3577-.3599s-.1598-.3599-.3577-.3599c-.1974 0-.3573.1613-.3573.3599s.1599.3599.3573.3599zM5.553 23.9226c0-.2044-.165-.3706-.3682-.3706-.2032 0-.3684.1662-.3684.3706s.1652.3706.3684.3706c.2031 0 .3683-.1662.3683-.3706zM4.7929 23.1794c.2138 0 .3866-.1739.3866-.3889a.3874.3874 0 00-.3866-.3885c-.2133 0-.3867.1739-.3867.3885 0 .215.1734.3889.3867.3889zM4.8884 21.6299c0-.218-.1758-.3943-.392-.3943s-.392.1763-.392.3943c0 .2175.1758.3943.392.3943s.392-.1768.392-.3943zM4.2976 20.8475c.2196 0 .3973-.1787.3973-.3996 0-.2204-.1777-.3991-.3973-.3991-.219 0-.3967.1787-.3967.3991 0 .2209.1776.3996.3967.3996zM4.1975 19.6561c.221 0 .3996-.1802.3996-.4021 0-.2218-.1786-.402-.3996-.402-.2205 0-.3996.1802-.3996.402 0 .2219.179.4021.3996.4021zM4.1979 18.463c.2239 0 .405-.1827.405-.4074 0-.2253-.1811-.4074-.405-.4074-.2234 0-.405.1821-.405.4074 0 .2247.1816.4074.405.4074zM4.2975 16.4537c-.2234 0-.405.1827-.405.4074 0 .2253.1816.4074.405.4074.2239 0 .405-.1821.405-.4074 0-.2247-.1811-.4074-.405-.4074zM4.9045 15.6797c0-.2267-.183-.4103-.4078-.4103-.2253 0-.4078.1836-.4078.4103 0 .2262.1825.4098.4078.4098.2248 0 .4078-.1836.4078-.4098zM4.3799 14.5185c0 .2296.1849.4156.4126.4156.2282 0 .4131-.186.4131-.4156 0-.2291-.1849-.4151-.413-.4151-.2278 0-.4127.186-.4127.4151zM4.7637 13.3869c0 .2335.1882.4234.4208.4234.232 0 .4208-.1899.4208-.4234 0-.2339-.1887-.4233-.4208-.4233-.2326 0-.4208.1894-.4208.4233zM5.2354 12.2923c0 .2408.1945.4365.4338.4365.2398 0 .4338-.1957.4338-.4365 0-.2412-.194-.4364-.4338-.4364-.2393 0-.4338.1952-.4338.4364zM5.8013 11.2417c0 .2456.1974.4446.4415.4446s.442-.199.442-.4446c0-.2451-.1979-.4442-.442-.4442s-.4415.1991-.4415.4442zM6.4473 10.2439c0 .2524.2036.4573.4545.4573.2513 0 .455-.2049.455-.4573 0-.2528-.2037-.4577-.455-.4577-.2509 0-.4545.2049-.4545.4577z" fill="#231F20"/><path d="M7.642 8.8417c-.2543 0-.4604.2073-.4604.463 0 .2553.2061.4626.4603.4626.2543 0 .4604-.2073.4604-.4626 0-.2557-.2061-.463-.4604-.463zM8.4578 7.9653c-.2556 0-.4627.2083-.4627.4655s.207.4655.4627.4655c.2557 0 .4627-.2083.4627-.4655s-.207-.4655-.4627-.4655zM9.3423 7.1448c-.2653 0-.481.217-.481.484 0 .2673.2157.4843.481.4843.2658 0 .4815-.217.4815-.4844 0-.2669-.2157-.4839-.4815-.4839zM9.8076 6.9044c0 .2689.2167.4863.4839.4863s.4839-.2174.4839-.4863c0-.2688-.2167-.4868-.4839-.4868s-.4839.218-.4839.4868zM10.8037 6.2621c0 .2747.221.4975.494.4975s.4945-.2228.4945-.4975c0-.2746-.2215-.4975-.4945-.4975s-.494.2229-.494.4975zM11.8486 5.707c0 .2805.2263.5077.5051.5077s.5046-.2272.5046-.5076c0-.2805-.2258-.5081-.5046-.5081-.2788 0-.5051.2276-.5051.508zM12.9355 5.2425c0 .2863.2312.5183.5157.5183.2846 0 .5152-.232.5152-.5183s-.2306-.5188-.5152-.5188c-.2845 0-.5157.2325-.5157.5188zM14.0664 4.872c0 .2882.2321.5212.5181.5212.286 0 .5181-.233.5181-.5212 0-.2877-.2321-.5212-.5181-.5212-.286 0-.5181.2335-.5181.5212zM16.2703 4.5983c0-.292-.2354-.529-.5258-.529-.2908 0-.5262.237-.5262.529 0 .2926.2354.5294.5262.5294.2904 0 .5258-.2368.5258-.5294zM33.5819 18.6511c-.0017 0-.0028.0016-.0028.0033s.0011.0028.0028.0028c.0016 0 .0033-.0011.0033-.0028s-.0017-.0033-.0033-.0033zM33.5613 19.8524a.0263.0263 0 00-.0525 0c0 .0144.0115.0264.026.0264a.0267.0267 0 00.0265-.0264zM33.4292 21.0425a.034.034 0 00-.0342-.0341.0343.0343 0 00-.0342.0341c0 .0188.0154.0342.0342.0342a.034.034 0 00.0342-.0342zM33.2315 22.2174a.069.069 0 00-.0684-.0693.0688.0688 0 00-.0684.0693c0 .0381.0304.0693.0684.0693a.069.069 0 00.0684-.0693zM32.9206 23.3713a.0816.0816 0 00-.0814-.0818.0818.0818 0 00-.0814.0818.082.082 0 00.0814.0824.0817.0817 0 00.0814-.0824zM32.3408 24.496c0 .048.0385.0872.0867.0872a.0872.0872 0 00.0867-.0872.0873.0873 0 00-.0867-.0877.087.087 0 00-.0867.0877zM31.9282 25.4759a.108.108 0 00-.1079.1085.108.108 0 10.2157 0 .1083.1083 0 00-.1078-.1085zM31.4697 26.6297a.1236.1236 0 10-.247 0 .124.124 0 00.1237.1245.1237.1237 0 00.1233-.1245zM30.5508 27.6267c0 .0741.0597.1347.1338.1347a.1348.1348 0 00.1344-.1347.1349.1349 0 00-.1344-.1352.1344.1344 0 00-.1338.1352zM29.7949 28.5678c0 .0847.0679.1535.1522.1535a.1532.1532 0 00.1526-.1535.1532.1532 0 00-.1526-.1536.1528.1528 0 00-.1522.1536zM29.1383 29.6146a.1661.1661 0 00.1656-.1667.166.166 0 00-.1656-.1666.166.166 0 00-.1656.1666c0 .0921.0741.1667.1656.1667zM28.2632 30.4361a.1742.1742 0 00.1733-.1749.1737.1737 0 00-.1733-.1743.1737.1737 0 00-.1734.1743c0 .0964.0776.1749.1734.1749zM27.3274 30.8153a.1876.1876 0 00-.1868.188c0 .1036.0838.1879.1868.1879a.1876.1876 0 00.1869-.1879.1876.1876 0 00-.1869-.188zM26.3371 31.8649a.1952.1952 0 00.1945-.1962.195.195 0 00-.1945-.1956.1948.1948 0 00-.1945.1956c0 .1086.0866.1962.1945.1962zM25.2974 32.4584a.203.203 0 00.2023-.2039.2028.2028 0 00-.2023-.2034.2032.2032 0 00-.2027.2034c0 .1129.091.2039.2027.2039zM24.4233 32.7563a.2082.2082 0 00-.2075-.2088.2082.2082 0 00-.2075.2088c0 .1157.0929.2092.2075.2092a.2083.2083 0 00.2075-.2092zM23.3085 33.1714a.211.211 0 00-.2104-.2116.2106.2106 0 00-.2104.2116.211.211 0 00.2104.2117.2113.2113 0 00.2104-.2117zM22.1644 33.4964a.2136.2136 0 00-.2133-.2141.2135.2135 0 00-.2128.2141c0 .1187.0953.2146.2128.2146a.2137.2137 0 00.2133-.2146zM21.004 33.7304a.2216.2216 0 00-.2205-.2224.2217.2217 0 00-.221.2224c0 .1225.0987.2223.221.2223a.2216.2216 0 00.2205-.2223zM19.8209 33.8714a.2214.2214 0 00-.221-.2224.2213.2213 0 00-.2205.2224c0 .1225.0987.2223.2205.2223a.2217.2217 0 00.221-.2223zM18.6305 33.9184a.222.222 0 00-.221-.2224.222.222 0 00-.221.2224.222.222 0 00.221.2223.222.222 0 00.221-.2223zM17.4401 33.8714a.2217.2217 0 00-.2211-.2224.2214.2214 0 00-.221.2224c0 .1225.0988.2223.221.2223a.222.222 0 00.2211-.2223zM16.2627 33.7303a.227.227 0 00-.2259-.2276.227.227 0 00-.2263.2276.227.227 0 00.2263.2277.227.227 0 00.2259-.2277zM15.0989 33.4964a.2323.2323 0 00-.2316-.2325.2323.2323 0 00-.2316.2325c0 .1289.104.233.2316.233a.2324.2324 0 00.2316-.233zM13.9605 33.1714a.24.24 0 00-.2393-.2407.2397.2397 0 00-.2393.2407.24.24 0 00.2393.2408.2403.2403 0 00.2393-.2408zM12.8509 32.7563a.248.248 0 00-.2474-.2485.248.248 0 00-.2471.2485.248.248 0 00.2471.2489.248.248 0 00.2474-.2489zM11.5213 32.5112a.2558.2558 0 00.2552-.2567.2557.2557 0 00-.2552-.2562.2556.2556 0 00-.2547.2562c0 .1419.1141.2567.2547.2567zM10.4821 31.9338a.264.264 0 00.2629-.2649.264.264 0 00-.2629-.2645.264.264 0 00-.2633.2645c0 .1463.1179.2649.2633.2649zM9.4911 31.2861a.2822.2822 0 00.2817-.2829.2822.2822 0 00-.2817-.2829.282.282 0 00-.2811.2829c0 .1564.1261.2829.2811.2829zM8.5559 30.5601a.2978.2978 0 00.297-.2989.2978.2978 0 00-.297-.2989.2978.2978 0 00-.2971.2989c0 .1652.1329.2989.297.2989zM7.9889 29.4479a.3085.3085 0 00-.3077-.3095.3085.3085 0 00-.3077.3095c0 .1705.1377.3095.3077.3095.17 0 .3077-.139.3077-.3095zM6.8728 28.8982a.3291.3291 0 00.3284-.3304c0-.1826-.1469-.3308-.3284-.3308-.1815 0-.3289.1482-.3289.3308 0 .1827.1474.3304.329.3304zM5.7905 27.6265c0 .1913.1541.3463.3443.3463s.3443-.155.3443-.3463-.1541-.3468-.3443-.3468-.3443.1555-.3443.3468zM5.473 26.2727c-.196 0-.3548.1599-.3548.357s.1589.3575.3548.3575c.1965 0 .3554-.1604.3554-.3575a.356.356 0 00-.3554-.357zM4.891 25.9467a.3614.3614 0 00.3605-.3623c0-.2005-.1612-.3628-.3606-.3628-.1988 0-.3601.1623-.3601.3628 0 .2.1613.3623.3601.3623zM4.7658 24.496c0-.2078-.167-.3759-.3731-.3759-.2066 0-.3737.1681-.3737.3759 0 .2073.1671.3754.3737.3754.206 0 .3731-.1681.3731-.3754zM3.98 23.7548c.2109 0 .3813-.1715.3813-.3836a.382.382 0 00-.3813-.3832c-.2104 0-.3814.1715-.3814.3832 0 .2121.171.3836.3814.3836zM4.0461 22.2179c0-.2161-.1743-.3914-.389-.3914-.2152 0-.3895.1753-.3895.3914 0 .216.1743.3914.3895.3914.2147 0 .389-.1754.389-.3914zM3.4246 21.4419c.219 0 .3972-.1787.3972-.3996 0-.2204-.1782-.3992-.3972-.3992-.2196 0-.3973.1788-.3973.3992 0 .2209.1777.3996.3973.3996zM3.2839 20.2571c.2224 0 .4025-.1812.4025-.405 0-.2233-.18-.4044-.4025-.4044-.222 0-.402.1811-.402.4044 0 .2238.18.405.402.405zM3.2375 19.0593c.2224 0 .402-.1812.402-.4045 0-.2238-.1796-.4049-.402-.4049-.2225 0-.4025.1811-.4025.4049 0 .2233.18.4045.4025.4045zM2.8818 17.4574c0 .2233.1801.4044.402.4044.2225 0 .4026-.1811.4026-.4044 0-.2238-.18-.405-.4025-.405-.222 0-.402.1812-.402.405zM3.0166 16.2667c0 .2267.1825.4103.4078.4103.2249 0 .4074-.1836.4074-.4103 0-.2262-.1825-.4098-.4074-.4098-.2253 0-.4078.1836-.4078.4098zM3.2412 15.0916c0 .2306.1859.418.4155.418.2292 0 .415-.1874.415-.418 0-.231-.1858-.418-.415-.418-.2296 0-.4155.187-.4155.418zM3.5644 13.9377c0 .2311.1864.4181.4156.4181.2296 0 .4155-.187.4155-.4181 0-.2305-.1859-.418-.4155-.418-.2292 0-.4156.1875-.4156.418zM3.9736 12.8136c0 .2325.1873.4204.4185.4204.2306 0 .4179-.1879.4179-.4204 0-.2325-.1873-.4205-.418-.4205-.231 0-.4184.188-.4184.4205zM4.4624 11.7251c0 .2384.1921.4311.4285.4311.237 0 .429-.1927.429-.4311 0-.2383-.192-.4311-.429-.4311-.2364 0-.4285.1928-.4285.4311zM5.039 10.6793c0 .2412.1946.4364.4339.4364.2398 0 .4343-.1952.4343-.4364 0-.2408-.1945-.4364-.4343-.4364-.2393 0-.4338.1956-.4338.4364zM5.685 9.6828c0 .25.2013.4525.4498.4525.2484 0 .4497-.2025.4497-.4525s-.2013-.4524-.4497-.4524c-.2485 0-.4497.2025-.4497.4524z" fill="#231F20"/><path d="M6.8725 8.2816c-.2528 0-.4575.2058-.4575.4601 0 .2543.2047.4602.4575.4602.2527 0 .4574-.2059.4574-.4602 0-.2543-.2047-.4601-.4574-.4601zM7.681 7.396c-.2557 0-.4627.2084-.4627.4656s.207.4655.4627.4655c.2557 0 .4632-.2083.4632-.4655s-.2075-.4655-.4632-.4655zM8.5562 6.564c-.2658 0-.481.217-.481.4843 0 .267.2152.484.481.484s.4815-.217.4815-.484c0-.2674-.2157-.4844-.4815-.4844zM9.4917 5.8195c-.2672 0-.4839.218-.4839.4868 0 .2688.2167.4868.484.4868.2671 0 .4838-.218.4838-.4868 0-.2689-.2167-.4868-.4839-.4868zM10.4823 5.1428c-.273 0-.4945.2228-.4945.4974 0 .2747.2215.4975.4945.4975s.494-.2228.494-.4975c0-.2746-.221-.4974-.494-.4974zM11.5212 4.5494c-.2773 0-.5022.2262-.5022.5052 0 .279.2249.5052.5022.5052.2779 0 .5022-.2262.5022-.5052 0-.279-.2243-.5052-.5022-.5052zM12.6036 4.0399c-.2816 0-.5098.2296-.5098.513 0 .2838.2282.5134.5098.5134.2817 0 .5104-.2296.5104-.5135 0-.2833-.2287-.513-.5104-.513zM13.7212 3.6193c-.285 0-.5156.2325-.5156.5188 0 .2862.2306.5183.5156.5183.2846 0 .5152-.232.5152-.5183s-.2306-.5188-.5152-.5188zM15.3886 3.8127c0-.2892-.233-.5236-.5205-.5236-.2874 0-.5204.2344-.5204.5236 0 .2892.233.524.5204.524.2875 0 .5205-.2348.5205-.524zM16.5618 3.5791c0-.2925-.2354-.5294-.5258-.5294-.2908 0-.5262.2369-.5262.5294 0 .2921.2354.529.5262.529.2904 0 .5258-.2369.5258-.529zM30.1265 9.683c0 .3095.2499.5609.5575.5609.3082 0 .5576-.2514.5576-.561 0-.3095-.2494-.5609-.5576-.5609-.3076 0-.5575.2515-.5575.561zM34.5311 18.6459a.0088.0088 0 00-.0086.0086c0 .0045.004.0081.0086.0081a.008.008 0 00.0081-.0081c0-.0046-.0036-.0086-.0081-.0086zM34.4863 19.831a.0209.0209 0 00-.021.021.021.021 0 00.021.0215.0214.0214 0 00.0215-.0215.0213.0213 0 00-.0215-.021zM34.3905 21.0442a.0365.0365 0 10-.0363.0364.0363.0363 0 00.0363-.0364zM34.1355 22.1682a.0526.0526 0 00-.0525.0532.053.053 0 00.0525.0531.053.053 0 00.0525-.0531.0526.0526 0 00-.0525-.0532zM33.9118 23.3805a.082.082 0 00-.0814-.0824.0816.0816 0 00-.0814.0824c0 .045.0361.0818.0814.0818a.0818.0818 0 00.0814-.0818zM33.4416 24.606a.0927.0927 0 00.0919-.093.0926.0926 0 00-.0919-.0926.0923.0923 0 00-.092.0926c0 .0513.0409.093.092.093zM32.9706 25.503a.1105.1105 0 00-.1102.1109.1106.1106 0 10.221 0 .1107.1107 0 00-.1108-.1109zM32.5353 26.6767a.1162.1162 0 00-.1155-.1162.1163.1163 0 000 .2325.116.116 0 00.1155-.1163zM31.9297 27.6959a.137.137 0 00-.1367-.1376.1371.1371 0 00-.1368.1376.137.137 0 00.1368.1375.137.137 0 00.1367-.1375zM31.0921 28.5145a.1504.1504 0 00-.1497.1511.15.15 0 00.1497.1507.1502.1502 0 00.1498-.1507.1505.1505 0 00-.1498-.1511zM30.3235 29.4271a.1532.1532 0 00-.1526.1535.1523.1523 0 10.3048 0 .1527.1527 0 00-.1522-.1535zM29.4879 30.269a.166.166 0 00-.1656.1666.166.166 0 00.1656.1666.166.166 0 00.1656-.1666.166.166 0 00-.1656-.1666zM28.5933 31.0521a.1738.1738 0 00-.1734.1744c0 .0964.0775.1749.1734.1749a.1746.1746 0 00.1738-.1749.1742.1742 0 00-.1738-.1744zM27.8211 31.9488a.179.179 0 00-.1786-.1797.1795.1795 0 00-.1791.1797.18.18 0 00.1791.1802.1795.1795 0 00.1786-.1802zM26.8358 32.5988a.1954.1954 0 00-.195-.1962.1953.1953 0 00-.1945.1962c0 .108.0871.1957.1945.1957a.1953.1953 0 00.195-.1957zM25.7951 33.1718a.2005.2005 0 00-.1998-.201.2006.2006 0 00-.1998.201c0 .1115.0896.2016.1998.2016a.2006.2006 0 00.1998-.2016zM24.7173 33.6664a.2086.2086 0 00-.2075-.2093.2087.2087 0 00-.208.2093c0 .1152.0929.2087.208.2087a.2081.2081 0 00.2075-.2087zM23.6015 34.0787a.211.211 0 00-.2104-.2117.2112.2112 0 00-.2104.2117c0 .1167.0943.2116.2104.2116a.211.211 0 00.2104-.2116zM22.4583 34.4065a.2136.2136 0 00-.2133-.2141.2136.2136 0 00-.2128.2141c0 .1182.0954.2141.2128.2141a.2136.2136 0 00.2133-.2141zM21.2966 34.6487a.219.219 0 00-.2181-.2199.219.219 0 00-.2181.2199c0 .1211.0977.2194.2181.2194a.2189.2189 0 00.2181-.2194zM20.1183 34.8032a.2214.2214 0 00-.221-.2223.2212.2212 0 00-.2205.2223c0 .1226.0987.2219.2205.2219a.2213.2213 0 00.221-.2219zM18.9283 34.8696a.2217.2217 0 00-.221-.2223.2217.2217 0 00-.221.2223.222.222 0 00.221.2224.222.222 0 00.221-.2224zM17.7374 34.8474a.222.222 0 00-.221-.2224.222.222 0 00-.221.2224.222.222 0 00.221.2223.222.222 0 00.221-.2223zM16.5533 34.737a.2241.2241 0 00-.2234-.2253.2244.2244 0 00-.2235.2253c0 .124.1002.2247.2235.2247a.224.224 0 00.2234-.2247zM15.3813 34.5383a.227.227 0 00-.2263-.2272.227.227 0 00-.2263.2272c0 .1254.1016.2276.2263.2276a.2273.2273 0 00.2263-.2276zM14.2374 34.2531a.2403.2403 0 00-.2393-.2407.24.24 0 00-.2393.2407c0 .1332.1069.2407.2393.2407a.24.24 0 00.2393-.2407zM13.1122 33.8829a.2482.2482 0 00-.247-.249.2482.2482 0 00-.2475.249.248.248 0 00.2475.2485.248.248 0 00.247-.2485zM12.0172 33.4296a.2558.2558 0 00-.2552-.2568.2561.2561 0 00-.2552.2568.256.256 0 00.2552.2562.2557.2557 0 00.2552-.2562zM10.9584 32.8954a.2639.2639 0 00-.2629-.265c-.1449 0-.2629.1187-.2629.265a.264.264 0 00.2629.2645.2638.2638 0 00.2629-.2645zM9.9454 32.283a.2745.2745 0 00-.2735-.2752.2742.2742 0 00-.2735.2752.274.274 0 00.2735.2751.2744.2744 0 00.2735-.2751zM8.9817 31.5967a.2874.2874 0 00-.2865-.2882.2875.2875 0 00-.287.2882c0 .1593.1286.2882.287.2882a.2874.2874 0 00.2865-.2882zM8.0711 30.8395a.3009.3009 0 00-.3-.3018c-.165 0-.2994.1351-.2994.3018 0 .1666.1343.3017.2995.3017.1656 0 .3-.1351.3-.3017zM6.9058 30.328c.1714 0 .31-.14.31-.3119 0-.1725-.1386-.3125-.31-.3125s-.3101.14-.3101.3125c0 .1719.1387.3119.31.3119zM6.1032 29.4634a.3322.3322 0 00.3313-.3332c0-.1841-.1483-.3333-.3313-.3333s-.3312.1492-.3312.3333c0 .184.1483.3332.3312.3332zM5.3678 27.8459a.3403.3403 0 00-.3395.3411c0 .1884.1522.3414.3395.3414.1873 0 .339-.153.339-.3414 0-.1885-.1517-.3411-.339-.3411zM4.7036 26.8458c-.1902 0-.3442.155-.3442.3463s.154.3464.3442.3464a.3457.3457 0 00.3448-.3464.3456.3456 0 00-.3448-.3463zM4.1141 26.5106c.1979 0 .3578-.1613.3578-.3599a.3584.3584 0 00-.3578-.3599c-.1974 0-.3573.1608-.3573.3599 0 .1986.1599.3599.3573.3599zM3.9716 25.068c0-.2049-.1647-.3705-.368-.3705a.369.369 0 00-.3683.3705.369.369 0 00.3684.3701c.2032 0 .3679-.1657.3679-.3701zM3.1729 24.3312c.209 0 .3784-.1705.3784-.3807 0-.2107-.1694-.3812-.3784-.3812-.2095 0-.379.1705-.379.3812 0 .2102.1695.3807.379.3807zM2.8256 23.1954c.2147 0 .389-.1754.389-.3914 0-.2165-.1743-.3919-.389-.3919-.2153 0-.389.1754-.389.3919 0 .216.1737.3914.389.3914zM2.5638 22.0314c.2176 0 .3943-.1778.3943-.3967 0-.219-.1767-.3968-.3943-.3968-.2182 0-.3948.1778-.3948.3968 0 .2189.1766.3967.3948.3967zM2.388 20.8485c.2195 0 .3972-.1787.3972-.3991 0-.2209-.1777-.3997-.3972-.3997-.2191 0-.3973.1788-.3973.3997 0 .2204.1782.3991.3973.3991zM2.3 19.6589c.2224 0 .4025-.1817.4025-.405 0-.2238-.18-.4049-.4025-.4049-.222 0-.402.1811-.402.4049 0 .2233.18.405.402.405zM2.2995 18.463c.2239 0 .4049-.1827.4049-.4074 0-.2253-.181-.4074-.405-.4074-.2233 0-.4049.1821-.4049.4074 0 .2247.1815.4074.405.4074zM1.9834 16.8601c0 .2253.1815.4074.405.4074.2238 0 .4049-.1821.4049-.4074 0-.2247-.181-.4073-.405-.4073-.2234 0-.4049.1826-.4049.4073zM2.1563 15.6747c0 .2263.1824.4098.4078.4098.2248 0 .4073-.1835.4073-.4098 0-.2267-.1825-.4102-.4073-.4102-.2254 0-.4078.1835-.4078.4102zM2.4102 14.5055c0 .231.1858.418.4155.418.2292 0 .4155-.187.4155-.418 0-.2311-.1863-.418-.4155-.418-.2297 0-.4155.1869-.4155.418zM2.752 13.359c0 .2339.1882.4233.4208.4233.232 0 .4208-.1894.4208-.4233 0-.2335-.1887-.4234-.4208-.4234-.2326 0-.4209.1899-.4209.4234zM3.1797 12.2415c0 .2349.1897.4258.4237.4258.2335 0 .4232-.1909.4232-.4258 0-.2354-.1897-.4258-.4232-.4258-.234 0-.4237.1904-.4237.4258zM3.6807 11.1588c0 .2413.1945.4365.4338.4365.2398 0 .4338-.1952.4338-.4365 0-.2412-.194-.4364-.4338-.4364-.2393 0-.4338.1952-.4338.4364zM4.2593 10.1174c0 .2465.1993.4466.4444.4466.2455 0 .4444-.2001.4444-.4466 0-.247-.1989-.4471-.4444-.4471-.245 0-.4444.2-.4444.4471zM4.918 9.122c0 .25.2012.4525.4497.4525.248 0 .4497-.2025.4497-.4525 0-.2494-.2018-.4524-.4497-.4524-.2485 0-.4497.203-.4497.4524z" fill="#231F20"/><path d="M6.1029 7.7163c-.2542 0-.4603.2073-.4603.463 0 .2558.206.4627.4603.4627.2542 0 .4603-.2069.4603-.4626 0-.2558-.206-.4631-.4603-.4631zM6.9055 6.8226c-.2585 0-.468.2107-.468.4709 0 .26.2095.4708.468.4708.2586 0 .468-.2107.468-.4708 0-.2602-.2094-.4709-.468-.4709zM7.7706 5.9885c-.2644 0-.4786.2155-.4786.4814 0 .266.2142.4815.4786.4815.2643 0 .4786-.2155.4786-.4815 0-.2659-.2143-.4814-.4786-.4814zM8.6948 5.2231c-.2687 0-.4868.2195-.4868.4898 0 .2702.2181.4892.4868.4892.2687 0 .4863-.219.4863-.4892 0-.2703-.2176-.4898-.4863-.4898zM9.1768 5.0264c0 .2747.2214.497.4944.497s.4945-.2223.4945-.497c0-.275-.2214-.4974-.4945-.4974-.273 0-.4944.2223-.4944.4974zM10.1934 4.4142c0 .279.2248.5052.5022.5052.2773 0 .5021-.2262.5021-.5052 0-.279-.2248-.5052-.5021-.5052-.2774 0-.5022.2262-.5022.5052zM11.2549 3.8799c0 .282.2272.5105.5075.5105.2802 0 .5075-.2286.5075-.5105 0-.282-.2273-.5106-.5075-.5106-.2803 0-.5075.2287-.5075.5106zM12.3525 3.4266c0 .2848.2292.5158.5128.5158.2831 0 .5123-.231.5123-.5158 0-.2849-.2292-.516-.5123-.516-.2836 0-.5128.2311-.5128.516zM13.4824 3.056c0 .2862.2311.5187.5157.5187.2846 0 .5152-.2325.5152-.5188 0-.2862-.2306-.5183-.5152-.5183-.2846 0-.5157.232-.5157.5183zM14.6294 2.7712c0 .2921.2354.529.5258.529.2903 0 .5258-.2369.5258-.529 0-.2925-.2355-.5294-.5258-.5294-.2904 0-.5258.2369-.5258.5294zM31.0923 9.1966c.3034 0 .5494-.2475.5494-.5527 0-.3052-.246-.5527-.5494-.5527-.3033 0-.5493.2475-.5493.5527 0 .3052.246.5527.5493.5527zM35.4788 18.6511c-.0016 0-.0027.0016-.0027.0033s.0011.0028.0027.0028c.0017 0 .0034-.0011.0034-.0028s-.0017-.0033-.0034-.0033zM35.4372 19.8385a.0137.0137 0 00-.0134.0138c0 .0075.006.0134.0134.0134a.0133.0133 0 00.0134-.0134.0137.0137 0 00-.0134-.0138zM35.3117 21.0084a.0364.0364 0 00-.0363.0368c0 .0201.0162.0363.0363.0363a.0367.0367 0 00.0368-.0363.0368.0368 0 00-.0368-.0368zM35.1056 22.1657a.0585.0585 0 00-.0582.0586.058.058 0 10.116 0 .0584.0584 0 00-.0578-.0586zM34.8173 23.3112a.0762.0762 0 00-.0761.0766c0 .0426.0337.077.0761.077a.0766.0766 0 00.0761-.077.0765.0765 0 00-.0761-.0766zM34.5309 24.5275a.082.082 0 00-.0818-.0819.0818.0818 0 00-.0814.0819.082.082 0 00.0814.0823.082.082 0 00.0818-.0823zM34.0029 25.5359a.1032.1032 0 000 .2063.103.103 0 00.1026-.1031.1026.1026 0 00-.1026-.1032zM33.4808 26.5997a.1164.1164 0 000 .233.1162.1162 0 00.1155-.1163.1163.1163 0 00-.1155-.1167zM32.8848 27.6139a.14.14 0 00-.1392.14.14.14 0 00.1392.1405c.077 0 .1396-.063.1396-.1405a.14.14 0 00-.1396-.14zM32.2187 28.6074a.1402.1402 0 00-.1396.1405.1393.1393 0 10.2788 0 .1398.1398 0 00-.1392-.1405zM31.4856 29.539a.1532.1532 0 00-.1526.1536c0 .0847.0684.153.1526.153a.1526.1526 0 00.1522-.153.153.153 0 00-.1522-.1536zM30.6877 30.4215a.161.161 0 00-.1604.1613c0 .0891.0718.1618.1604.1618a.1612.1612 0 00.1603-.1618.161.161 0 00-.1603-.1613zM29.8311 31.2464a.1688.1688 0 00-.1685.1691c0 .0935.0756.1695.1685.1695a.1688.1688 0 00.1681-.1695.1685.1685 0 00-.1681-.1691zM28.9184 32.0088a.1769.1769 0 00-.1762.1773c0 .0979.079.1773.1762.1773a.1768.1768 0 00.1762-.1773.1768.1768 0 00-.1762-.1773zM28.1407 32.8904a.1867.1867 0 00-.1863-.1874.1868.1868 0 00-.1868.1874c0 .1037.0833.188.1868.188a.1872.1872 0 00.1863-.188zM27.139 33.5259a.1952.1952 0 00-.1945-.1961.1953.1953 0 00-.1945.1961c0 .108.0872.1957.1945.1957a.1952.1952 0 00.1945-.1957zM26.0944 34.0883a.2028.2028 0 00-.2027-.2034.2027.2027 0 00-.2022.2034c0 .1124.0905.2039.2022.2039a.2033.2033 0 00.2027-.2039zM25.0117 34.5761a.2083.2083 0 00-.2075-.2093.2083.2083 0 00-.2075.2093c0 .1153.0929.2088.2075.2088a.2082.2082 0 00.2075-.2088zM23.8945 34.986a.2113.2113 0 00-.2105-.2117.2113.2113 0 00-.2104.2117c0 .1167.0944.2116.2104.2116a.2113.2113 0 00.2105-.2116zM22.7547 35.3163a.2163.2163 0 00-.2157-.217.2167.2167 0 00-.2158.217c0 .1197.0968.217.2158.217a.2163.2163 0 00.2157-.217zM21.5915 35.5652a.2188.2188 0 00-.2181-.2194.2188.2188 0 00-.2181.2194c0 .1216.0977.22.2181.22a.219.219 0 00.2181-.22zM20.4142 35.7324a.2213.2213 0 00-.2205-.2224.2214.2214 0 00-.221.2224c0 .1225.0987.2218.221.2218a.2211.2211 0 00.2205-.2218zM19.2267 35.8156a.2212.2212 0 00-.221-.2218.2211.2211 0 00-.2205.2218c0 .1231.0987.2224.2205.2224a.2214.2214 0 00.221-.2224zM18.0348 35.8156a.2216.2216 0 00-.221-.2218.2216.2216 0 00-.221.2218c0 .1231.0992.2224.221.2224a.2217.2217 0 00.221-.2224zM16.8492 35.7325a.224.224 0 00-.2234-.2248.224.224 0 00-.2239.2248c0 .124.1001.2247.2239.2247a.2242.2242 0 00.2234-.2247zM15.6718 35.5652a.2266.2266 0 00-.2263-.2271.2265.2265 0 00-.2258.2271c0 .126.1011.2277.2258.2277a.2267.2267 0 00.2263-.2277zM14.512 35.3163a.2327.2327 0 00-.2316-.233.2327.2327 0 00-.2316.233c0 .1283.104.233.2316.233a.2327.2327 0 00.2316-.233zM13.377 34.986a.2429.2429 0 00-.2422-.2437.2427.2427 0 00-.2417.2437c0 .1341.1083.2431.2417.2431a.2427.2427 0 00.2422-.2431zM12.263 34.5761a.2481.2481 0 00-.2474-.249.248.248 0 00-.247.249.248.248 0 00.247.2485.248.248 0 00.2474-.2485zM11.1823 34.0883a.2564.2564 0 00-.2552-.2567.256.256 0 00-.2552.2567c0 .1419.1141.2567.2552.2567a.256.256 0 00.2552-.2567zM10.1381 33.5259a.2638.2638 0 00-.2629-.2649.2638.2638 0 00-.2629.2649c0 .1458.1175.2645.2629.2645a.2638.2638 0 00.2629-.2645zM9.1459 32.8905a.2824.2824 0 00-.2812-.2829.2825.2825 0 00-.2817.2829c0 .1564.1262.2833.2817.2833.155 0 .2812-.1269.2812-.2833zM8.193 32.1861a.2925.2925 0 00-.2918-.2935.2925.2925 0 00-.2918.2935c0 .1623.1305.2936.2918.2936a.2925.2925 0 00.2917-.2936zM7.2937 31.4155a.3059.3059 0 00-.3053-.3066.3058.3058 0 00-.3048.3066c0 .1695.1367.3071.3048.3071a.3063.3063 0 00.3053-.3071zM6.1308 30.9006c.1743 0 .3159-.1424.3159-.3178a.317.317 0 00-.3159-.3173c-.1738 0-.3154.1425-.3154.3173 0 .1754.1416.3178.3154.3178zM5.3343 30.0181c.1786 0 .3236-.1458.3236-.3255s-.145-.3255-.3236-.3255-.3236.1458-.3236.3255.145.3255.3236.3255zM4.6007 28.4064c-.1873 0-.339.153-.339.3415 0 .1884.1517.341.339.341a.3403.3403 0 00.3394-.341c0-.1885-.1521-.3415-.3394-.3415zM3.9346 27.4052a.348.348 0 00-.3472.3488.348.348 0 00.3472.3492.348.348 0 00.3471-.3492.348.348 0 00-.3471-.3488zM3.3392 27.0789c.1988 0 .3601-.1623.3601-.3624a.361.361 0 00-.3601-.3623.3611.3611 0 00-.3607.3623c0 .2001.1613.3624.3607.3624zM2.8166 26.0092c.2032 0 .3678-.1657.3678-.3701 0-.2049-.1646-.3706-.3678-.3706-.2032 0-.3684.1657-.3684.3706 0 .2044.1652.3701.3684.3701zM2.3702 24.9058c.2075 0 .376-.1691.376-.3783 0-.2088-.1685-.3784-.376-.3784s-.376.1696-.376.3784c0 .2092.1685.3783.376.3783zM2.0014 23.7766c.2138 0 .3866-.1739.3866-.389 0-.2145-.1728-.3889-.3866-.3889-.2133 0-.3862.1744-.3862.3889 0 .2151.1729.389.3862.389zM1.7142 22.619c.2162 0 .3914-.1763.3914-.3943 0-.2175-.1752-.3938-.3914-.3938a.3927.3927 0 00-.392.3938c0 .218.1753.3943.392.3943zM1.507 21.4468c.221 0 .3997-.1802.3997-.402 0-.2223-.1786-.4025-.3996-.4025-.2206 0-.3997.1802-.3997.4025 0 .2218.1791.402.3997.402zM1.3825 20.2571c.2225 0 .4025-.1812.4025-.4045 0-.2238-.18-.4049-.4025-.4049-.222 0-.402.1811-.402.4049 0 .2233.18.4045.402.4045zM1.3405 19.0593c.2225 0 .4025-.1812.4025-.4045 0-.2238-.18-.4049-.4025-.4049-.222 0-.402.1811-.402.4049 0 .2233.18.4045.402.4045zM.9805 17.4569c0 .2233.18.4044.402.4044.2225 0 .4025-.1811.4025-.4044 0-.2238-.18-.405-.4025-.405-.222 0-.402.1812-.402.405zM1.0996 16.2648c0 .2267.1825.4102.4074.4102.2253 0 .4078-.1835.4078-.4102 0-.2262-.1825-.4098-.4079-.4098-.2248 0-.4073.1836-.4073.4098zM1.3037 15.0844c0 .2281.1835.4127.4102.4127.2263 0 .4103-.1846.4103-.4127 0-.2277-.184-.4127-.4103-.4127-.2267 0-.4102.185-.4102.4127zM1.586 13.9213c0 .231.1863.418.4155.418.2296 0 .4155-.187.4155-.418 0-.2306-.1859-.4176-.4155-.4176-.2292 0-.4156.187-.4156.4176zM1.9522 12.7816c0 .2325.1868.4209.4179.4209s.418-.1884.418-.4209c0-.232-.1869-.4205-.418-.4205-.2311 0-.418.1885-.418.4205zM2.3935 11.6704c0 .2354.1893.4257.4233.4257.2335 0 .4232-.1903.4232-.4257 0-.2355-.1897-.4258-.4232-.4258-.234 0-.4233.1903-.4233.4258zM2.9102 10.5931c0 .2383.192.4311.429.4311.2364 0 .4285-.1928.4285-.4311 0-.2383-.1921-.4311-.4285-.4311-.237 0-.429.1928-.429.4311zM3.4873 9.555c0 .2485.2003.45.4473.45.247 0 .4468-.2015.4468-.45s-.1998-.4495-.4468-.4495c-.247 0-.4473.201-.4473.4495zM4.1538 8.5615c0 .248.2003.4495.4468.4495.247 0 .4473-.2015.4473-.4495 0-.2485-.2003-.45-.4473-.45-.2465 0-.4468.2015-.4468.45z" fill="#231F20"/><path d="M5.3343 7.154c-.2542 0-.4603.2073-.4603.463 0 .2558.2061.463.4603.463s.4599-.2072.4599-.463c0-.2557-.2057-.463-.4599-.463zM6.1311 6.2554c-.258 0-.468.2107-.468.4709 0 .26.21.4708.468.4708.2586 0 .4685-.2107.4685-.4708 0-.2602-.21-.4709-.4685-.4709zM6.9884 5.412c-.2644 0-.4786.2156-.4786.4815 0 .266.2142.4815.4786.4815.2643 0 .4786-.2156.4786-.4815 0-.266-.2143-.4815-.4786-.4815zM7.9014 4.639c-.2658 0-.4815.217-.4815.4844 0 .2674.2157.4839.4815.4839s.481-.2165.481-.4839c0-.2674-.2152-.4844-.481-.4844zM8.8647 3.9294c-.2687 0-.4868.219-.4868.4892 0 .2703.2181.4897.4868.4897.2687 0 .4863-.2194.4863-.4897s-.2176-.4892-.4863-.4892zM9.8748 3.2837c-.2744 0-.4969.2238-.4969.4999 0 .276.2225.4999.497.4999.2744 0 .4968-.2238.4968-.5 0-.276-.2224-.4998-.4969-.4998zM10.927 2.7156c-.2773 0-.5022.2262-.5022.5052 0 .2795.2249.5057.5022.5057s.5022-.2262.5022-.5057c0-.279-.2249-.5052-.5022-.5052zM12.0158 2.2204c-.2817 0-.5099.2296-.5099.513 0 .2833.2282.513.5099.513.2816 0 .5103-.2297.5103-.513 0-.2834-.2287-.513-.5103-.513zM13.1344 1.8078c-.2831 0-.5123.231-.5123.5159 0 .2848.2292.5158.5123.5158.2836 0 .5128-.231.5128-.5158 0-.2849-.2292-.516-.5128-.516zM14.2802 1.4667c-.2889 0-.5234.236-.5234.5266 0 .2906.2345.5265.5234.5265s.5234-.236.5234-.5266c0-.2906-.2345-.5265-.5234-.5265zM15.972 1.7438c0-.292-.2355-.529-.5263-.529-.2903 0-.5258.237-.5258.529 0 .2926.2355.529.5258.529.2908 0 .5263-.2364.5263-.529zM32.2182 9.1196c.3063 0 .5547-.25.5547-.558 0-.3086-.2484-.558-.5547-.558-.3067 0-.5551.2494-.5551.558 0 .308.2484.558.5551.558zM36.3789 19.8523c0 .0046.0041.0081.0086.0081a.008.008 0 00.0081-.0081c0-.0046-.0035-.0086-.0081-.0086a.0089.0089 0 00-.0086.0086zM36.2485 21.0451c0 .0117.0098.0215.0215.0215a.0213.0213 0 00.021-.0215.0212.0212 0 00-.021-.0214.0216.0216 0 00-.0215.0214zM36.0731 22.1794a.0476.0476 0 00-.0472.0478c0 .0264.0212.0478.0472.0478a.0476.0476 0 00.0476-.0478.0477.0477 0 00-.0476-.0478zM35.7998 23.3243a.0688.0688 0 00-.0684.0692c0 .0386.0304.0693.0684.0693a.0688.0688 0 00.0684-.0693.069.069 0 00-.0684-.0692zM35.4506 24.466a.0742.0742 0 000 .1482.074.074 0 00.0737-.0741.0736.0736 0 00-.0737-.0741zM35.0266 25.5757a.0842.0842 0 00-.0842.0843.0843.0843 0 10.1685 0 .0845.0845 0 00-.0843-.0843zM34.5298 26.6491a.1003.1003 0 00-.0996.1008c0 .0552.0448.1003.0996.1003a.1003.1003 0 00.1002-.1003.1004.1004 0 00-.1002-.1008zM33.963 27.6741a.1295.1295 0 00-.129.1299.129.129 0 00.129.1293.1286.1286 0 00.1286-.1293.1291.1291 0 00-.1286-.1299zM33.3277 28.6859a.1316.1316 0 00-.1314.1318.132.132 0 00.1314.1327.1322.1322 0 00.1315-.1327.1317.1317 0 00-.1315-.1318zM32.6278 29.6392a.1474.1474 0 00-.1473.1482c0 .0819.0654.1483.1473.1483a.1478.1478 0 00.1469-.1483.1477.1477 0 00-.1469-.1482zM31.8655 30.5527a.1555.1555 0 00-.1551.156c0 .0862.0694.156.1551.156a.1554.1554 0 00.155-.156.1554.1554 0 00-.155-.156zM31.0436 31.4101a.1662.1662 0 00-.1657.1666c0 .0921.0742.1666.1657.1666a.166.166 0 00.1656-.1666.1661.1661 0 00-.1656-.1666zM30.168 32.2167a.1714.1714 0 00-.1709.172c0 .0949.0765.1719.1709.1719a.1714.1714 0 00.1709-.1719.1714.1714 0 00-.1709-.172zM29.2392 32.9606a.1792.1792 0 00-.1787.1797c0 .0993.08.1797.1787.1797a.1795.1795 0 00.1791-.1797.1795.1795 0 00-.1791-.1797zM28.264 33.6408a.1876.1876 0 00-.1869.1879c0 .1037.0838.188.1869.188a.1872.1872 0 00.1863-.188.1871.1871 0 00-.1863-.1879zM27.2458 34.255a.1953.1953 0 00-.195.1957c0 .1085.0871.1962.195.1962a.1953.1953 0 00.1945-.1962.1952.1952 0 00-.1945-.1957zM26.1886 34.7999a.2033.2033 0 00-.2023.2039c0 .1124.0905.2035.2023.2035a.2033.2033 0 00.2027-.2035.2037.2037 0 00-.2027-.2039zM25.0972 35.2761a.2086.2086 0 00-.2076.2092c0 .1153.093.2088.2076.2088a.2086.2086 0 00.208-.2088.209.209 0 00-.208-.2092zM23.977 35.6815a.2113.2113 0 00-.2104.2117c0 .1167.0944.2117.2104.2117a.211.211 0 00.2104-.2117.211.211 0 00-.2104-.2117zM22.8329 36.0114a.2136.2136 0 00-.2128.2141c0 .1187.0954.2146.2128.2146a.2137.2137 0 00.2129-.2146.2136.2136 0 00-.2129-.2141zM21.6688 36.2618a.219.219 0 00-.2186.2195.219.219 0 00.2186.2194.2188.2188 0 00.2181-.2194.219.219 0 00-.2181-.2195zM20.4905 36.4367a.2217.2217 0 00-.221.2224c0 .1225.0987.2223.221.2223a.2216.2216 0 00.2206-.2223.2216.2216 0 00-.2206-.2224zM19.3035 36.5362a.2212.2212 0 00-.221.2218c0 .123.0987.2223.221.2223a.2212.2212 0 00.2205-.2223.2211.2211 0 00-.2205-.2218zM18.1116 36.5553a.2216.2216 0 00-.2205.2224c0 .123.0987.2223.2205.2223a.2214.2214 0 00.221-.2223.2217.2217 0 00-.221-.2224zM16.9217 36.4941a.2244.2244 0 00-.2235.2252c0 .124.1002.2248.2235.2248a.2243.2243 0 00.2234-.2248.2243.2243 0 00-.2234-.2252zM15.738 36.3524a.227.227 0 00-.2263.2276c0 .1255.1016.2277.2263.2277a.227.227 0 00.2263-.2277.2267.2267 0 00-.2263-.2276zM14.5671 36.1357a.2267.2267 0 00-.2263.2272c0 .126.1011.2277.2263.2277a.2266.2266 0 00.2258-.2277.2266.2266 0 00-.2258-.2272zM13.4118 35.836a.2321.2321 0 00-.2316.233.232.232 0 00.2316.2325.2318.2318 0 00.2311-.2325.232.232 0 00-.2311-.233zM12.2779 35.4577a.2399.2399 0 00-.2388.2407c0 .1332.1069.2407.2388.2407a.2397.2397 0 00.2393-.2407.24.24 0 00-.2393-.2407zM11.1722 34.997a.2558.2558 0 00-.2552.2567c0 .1414.1141.2562.2552.2562a.256.256 0 00.2552-.2562.256.256 0 00-.2552-.2567zM10.0979 34.4715a.2638.2638 0 00-.263.2645c0 .1462.1176.2644.263.2644a.2634.2634 0 00.2629-.2644.2638.2638 0 00-.2629-.2645zM9.0592 33.8757a.2718.2718 0 00-.2711.2727c0 .1501.1213.2722.271.2722a.2717.2717 0 00.2707-.2722.2717.2717 0 00-.2706-.2727zM8.0618 33.202a.29.29 0 00-.2893.2906c0 .1609.1295.2912.2893.2912a.2902.2902 0 00.2894-.2912.29.29 0 00-.2894-.2906zM7.1096 32.4758c-.1622 0-.2942.1327-.2942.2964 0 .1637.132.2965.2942.2965a.2956.2956 0 00.2947-.2965.2955.2955 0 00-.2947-.2964zM6.2077 31.6857a.3032.3032 0 00-.3024.3042c0 .1681.1353.3042.3023.3042a.3035.3035 0 00.3024-.3042.3035.3035 0 00-.3023-.3042zM5.3574 30.8323a.3165.3165 0 00-.3154.3172c0 .1754.1416.3178.3154.3178.1743 0 .3158-.1424.3158-.3178a.3166.3166 0 00-.3158-.3172zM4.565 29.9134a.3403.3403 0 00-.3394.341c0 .1884.1521.3415.3394.3415.1873 0 .339-.1531.339-.3415a.3399.3399 0 00-.339-.341zM3.8331 28.9675a.3398.3398 0 00-.339.341c0 .1889.1517.3415.339.3415a.3404.3404 0 00.3395-.3415.3402.3402 0 00-.3395-.341zM3.1659 27.9588c-.1965 0-.3554.1599-.3554.3575a.356.356 0 00.3554.357c.196 0 .3548-.1599.3548-.357 0-.1976-.1589-.3575-.3548-.3575zM2.924 27.2818c0-.2006-.1614-.3628-.3602-.3628-.1994 0-.3607.1622-.3607.3628 0 .2.1613.3623.3607.3623.1988 0 .3601-.1623.3601-.3623zM2.4031 26.2092c0-.2063-.1661-.3729-.3707-.3729a.3718.3718 0 00-.3713.3729c0 .2059.1662.373.3713.373.2046 0 .3707-.1671.3707-.373zM1.945 25.1034c0-.2073-.1675-.3754-.3736-.3754-.206 0-.3732.1681-.3732.3754 0 .2078.1671.3759.3732.3759.206 0 .3736-.1681.3736-.3759zM1.5665 23.97c0-.2117-.171-.3836-.3814-.3836-.2108 0-.3814.1719-.3814.3836s.1706.3836.3814.3836c.2105 0 .3814-.1719.3814-.3836zM1.2674 22.8133c0-.2194-.1767-.3967-.3945-.3967-.2178 0-.3944.1773-.3944.3967 0 .2189.1766.3967.3944.3967.2178 0 .3945-.1778.3945-.3967zM1.0354 21.638c0-.2208-.178-.3996-.3973-.3996-.2192 0-.3969.1788-.3969.3996 0 .2204.1777.3997.3969.3997.2193 0 .3973-.1793.3973-.3997zM.8804 20.4498c0-.2218-.1789-.402-.3997-.402s-.3996.1802-.3996.402c0 .2224.1788.4021.3996.4021.2208 0 .3997-.1797.3997-.4021zM.4023 19.6589c.2223 0 .4023-.1817.4023-.405 0-.2233-.18-.4049-.4023-.4049-.2221 0-.4023.1816-.4023.4049 0 .2233.1802.405.4023.405zM.4023 18.4601c.2223 0 .4023-.1811.4023-.4044 0-.2238-.18-.405-.4023-.405-.2221 0-.4023.1812-.4023.405 0 .2233.1802.4044.4023.4044zM.4806 17.267c.2237 0 .405-.1826.405-.4073 0-.2253-.1813-.4074-.405-.4074-.2236 0-.405.1821-.405.4074 0 .2247.1814.4073.405.4073zM.6381 16.0787c.2239 0 .405-.1826.405-.4073 0-.2253-.1811-.4074-.405-.4074-.2236 0-.4047.1821-.4047.4074 0 .2247.1811.4073.4047.4073zM.8734 14.9061c.225 0 .4075-.1836.4075-.4098 0-.2267-.1825-.4103-.4075-.4103-.2251 0-.4076.1836-.4076.4103 0 .2262.1825.4098.4076.4098zM1.185 13.7571c.2292 0 .4155-.1869.4155-.4175 0-.2311-.1863-.418-.4155-.418-.2297 0-.4155.1869-.4155.418 0 .2306.1858.4175.4155.4175zM1.5713 12.626c.231 0 .4179-.188.4179-.4205 0-.232-.1868-.4204-.418-.4204-.2306 0-.4179.1884-.4179.4204 0 .2325.1873.4205.418.4205zM2.0326 11.5289c.235 0 .4256-.1918.4256-.4287 0-.2369-.1907-.4287-.4256-.4287-.2355 0-.4262.1918-.4262.4287 0 .2369.1907.4287.4262.4287zM2.5637 10.4642c.2393 0 .4338-.1952.4338-.4365 0-.2412-.1945-.4364-.4338-.4364-.2398 0-.4338.1952-.4338.4364 0 .2413.194.4365.4338.4365zM3.1656 9.4378c.2437 0 .4416-.199.4416-.4447 0-.2455-.198-.4442-.4416-.4442-.244 0-.442.1987-.442.4442 0 .2456.198.4447.442.4447zM3.8335 8.4506c.247 0 .4469-.2015.4469-.45s-.1999-.4495-.4469-.4495c-.247 0-.4468.201-.4468.4495s.1998.45.4468.45z" fill="#231F20"/><path d="M4.5654 7.5123c.2513 0 .455-.2049.455-.4577 0-.2524-.2037-.4573-.455-.4573-.2514 0-.455.205-.455.4573 0 .2528.2036.4577.455.4577zM5.3572 6.6255c.2557 0 .4632-.2088.4632-.4655 0-.2572-.2075-.466-.4632-.466-.2551 0-.4627.2088-.4627.466 0 .2567.2076.4655.4627.4655zM6.2077 5.7953c.261 0 .4733-.2131.4733-.4762 0-.263-.2123-.4761-.4733-.4761-.2615 0-.4733.2131-.4733.4761s.2118.4762.4733.4762zM7.1095 5.0188c.2643 0 .4786-.2156.4786-.4815 0-.266-.2143-.4815-.4786-.4815-.2639 0-.4781.2156-.4781.4815 0 .266.2142.4815.478.4815zM8.062 4.3062c.2687 0 .4863-.2194.4863-.4897s-.2176-.4892-.4863-.4892c-.2687 0-.4863.2189-.4863.4892s.2176.4897.4863.4897zM9.0595 3.6556c.2715 0 .4916-.2213.4916-.4945s-.22-.4946-.4916-.4946c-.272 0-.4921.2214-.4921.4946s.22.4945.492.4945zM10.0979 3.0784c.2773 0 .5022-.2257.5022-.5052 0-.279-.2249-.5053-.5022-.5053s-.5022.2263-.5022.5053c0 .2795.2249.5052.5022.5052zM11.1721 2.5638c.2788 0 .5046-.2276.5046-.508 0-.2805-.2258-.5077-.5046-.5077-.2788 0-.5051.2272-.5051.5076 0 .2805.2263.5081.5051.5081zM12.2779 2.1295c.285 0 .5157-.232.5157-.5188 0-.2863-.2307-.5183-.5157-.5183-.2846 0-.5152.232-.5152.5183 0 .2867.2306.5188.5152.5188zM13.4116 1.7617c.286 0 .5181-.2335.5181-.5212 0-.2877-.2321-.5212-.5181-.5212-.286 0-.518.2335-.518.5212 0 .2877.232.5212.518.5212zM14.5668 1.4725c.2889 0 .5229-.2354.5229-.526 0-.2911-.234-.5265-.5229-.5265-.2893 0-.5233.2354-.5233.5265 0 .2906.234.526.5233.526zM15.7387 1.2584c.2903 0 .5258-.2369.5258-.529 0-.292-.2355-.5289-.5258-.5289-.2904 0-.5258.2369-.5258.529 0 .292.2354.529.5258.529zM16.6921 1.0617c-.0227-.0034-.0429-.0135-.0665-.0135-.2908 0-.5263.2368-.5263.529a.529.529 0 00.3154.4834c-.0284-.0049-.0544-.017-.0847-.017-.2904 0-.5258.2369-.5258.529 0 .292.2354.5289.5258.5289.2903 0 .5258-.2369.5258-.529a.528.528 0 00-.3154-.4834c.0289.0049.0549.017.0852.017.2904 0 .5258-.2369.5258-.529 0-.2083-.1223-.384-.2966-.4708.0231.0034.0433.0136.0669.0136.2904 0 .5258-.2369.5258-.529 0-.292-.2354-.529-.5258-.529-.2903 0-.5258.237-.5258.529 0 .2083.1223.3846.2962.4708zM17.8195.963c-.0019 0-.0038-.001-.0058-.001-.2917 0-.5286.2379-.5286.5314 0 .1884.103.3463.2503.4408-.0067 0-.0125-.0039-.0192-.0039-.2918 0-.5287.2378-.5287.5319 0 .1952.1098.3589.2663.4514-.0121-.001-.0227-.0072-.0347-.0072-.2918 0-.5287.2378-.5287.5318 0 .2059.1204.3798.2908.468-.0202-.0025-.038-.0117-.0587-.0117-.2903 0-.5258.2369-.5258.529 0 .2174.131.4035.3178.4848-.0294-.0048-.0563-.0174-.0871-.0174-.2904 0-.5258.2369-.5258.529 0 .292.2354.5289.5258.5289.2903 0 .5257-.2369.5257-.529a.5282.5282 0 00-.3173-.4848c.0294.0048.0559.0174.0867.0174.2903 0 .5258-.2369.5258-.529 0-.2048-.1194-.3778-.2889-.466.0207.0025.0385.0127.0597.0127.2918 0 .5282-.2384.5282-.5319 0-.1957-.1098-.3594-.2658-.4514.0121.0004.0222.0067.0347.0067.2918 0 .5287-.2378.5287-.5313 0-.189-.1031-.3464-.2504-.4408.0067.0005.0125.0039.0192.0039.2918 0 .5287-.2379.5287-.532 0-.1825-.0972-.3356-.2369-.431.0024 0 .0039.001.0058.001.2923 0 .5287-.2379.5287-.532C18.64.238 18.4036 0 18.1113 0c-.2918 0-.5282.2379-.5282.5314 0 .1826.0973.3362.2364.4316zM18.9858.966a.5277.5277 0 00-.509.5274c0 .174.0881.3207.2157.4176a.5286.5286 0 00-.5137.529c0 .1757.0905.3245.2215.4213a.529.529 0 00-.5196.53c0 .1787.0939.3293.2287.4257-.2908.0015-.5262.2383-.5262.5314 0 .1846.0992.339.2412.4345-.0039 0-.0067-.002-.0106-.002-.2918 0-.5287.2379-.5287.5314 0 .1953.1098.3585.2658.451-.012-.0005-.0221-.0068-.0342-.0068-.2908 0-.5263.2369-.5263.529 0 .2063.1209.3807.2923.4679-.0217-.003-.0404-.0126-.0626-.0126-.2903 0-.5258.2369-.5258.529 0 .292.2355.529.5258.529.2904 0 .5258-.237.5258-.529 0-.2064-.1208-.3808-.2923-.468.0217.003.0405.0126.0631.0126.2904 0 .5258-.2368.5258-.529 0-.1937-.1088-.3564-.2639-.4485.0121.001.0227.0073.0352.0073.2918 0 .5287-.2383.5287-.5319 0-.1845-.0997-.339-.2417-.4345.0038 0 .0072.002.0106.002.2922 0 .5286-.2379.5286-.5314 0-.1792-.0934-.3299-.2282-.4263.2908-.001.5263-.2383.5263-.5308 0-.1764-.0905-.3246-.222-.4215a.5293.5293 0 00.52-.5299c0-.1734-.0881-.3207-.2162-.4175a.5286.5286 0 00.5138-.529c0-.1715-.0862-.3168-.2114-.4141.2822-.0112.5089-.2413.5089-.528 0-.2936-.2364-.5314-.5281-.5314-.2923 0-.5287.2378-.5287.5314 0 .172.0862.3173.2114.4146zM20.1558 1.0531c-.273.0204-.4906.2442-.4906.5242 0 .1651.0795.307.1969.4044-.2749.019-.4935.2432-.4935.5246 0 .1666.0804.309.1998.4064-.2763.0174-.4969.2432-.4969.5256 0 .168.0824.3114.2037.4088-.2783.0155-.5012.2422-.5012.526 0 .1706.0847.3149.2085.4123-.2808.013-.5061.2417-.5061.527 0 .1724.0872.3187.2138.416a.5283.5283 0 00-.5114.528c0 .1759.0901.3241.2206.421a.529.529 0 00-.5186.5294c0 .1797.0944.3308.2297.4272-.2913.0005-.5273.2379-.5273.5314 0 .1909.1055.3507.2557.4442-.0087-.0005-.0159-.0048-.0245-.0048-.2909 0-.5263.2368-.5263.5289 0 .292.2354.529.5263.529.2903 0 .5257-.237.5257-.529 0-.1899-.1049-.3487-.2542-.4418.0092.0005.0164.0049.0255.0049.2923 0 .5287-.2378.5287-.5314 0-.1797-.0939-.3308-.2297-.4267.2913-.0005.5278-.2383.5278-.5319 0-.1753-.0906-.3236-.221-.4204a.5294.5294 0 00.519-.53c0-.1724-.0871-.3187-.2138-.4156a.5284.5284 0 00.5114-.5284c0-.17-.0848-.3149-.208-.4122.2802-.0126.5055-.2413.5055-.527 0-.1681-.0823-.3115-.2036-.4089.2783-.0155.5007-.2422.5007-.526 0-.1667-.0809-.309-.1998-.407.2764-.0169.4969-.2426.4969-.525 0-.1652-.0795-.3071-.1969-.4045.2749-.0189.4935-.2431.4935-.5245 0-.1643-.078-.3052-.1941-.403.2735-.0204.4907-.2437.4907-.5237 0-.294-.2364-.5318-.5282-.5318-.2923 0-.5287.2378-.5287.5318 0 .1637.078.3052.194.4025zM21.3159 1.2212c-.2648.0305-.4733.2485-.4733.5226 0 .158.0708.2965.1791.3943-.2653.0296-.4742.248-.4742.5227 0 .1598.0731.2993.1834.3972-.2658.0271-.4762.246-.4762.5212 0 .1603.0742.2998.1863.3972-.2691.0247-.4819.245-.4819.5222 0 .1603.0741.2993.1853.3967-.2701.0252-.4839.2465-.4839.5246 0 .1613.0747.3013.1869.3991-.2697.0257-.483.2466-.483.5246 0 .1637.0775.3047.1926.403-.2711.0223-.4863.2446-.4863.5231 0 .1657.0795.3076.1974.405-.2749.0184-.4945.2432-.4945.5246 0 .168.0824.311.2027.4083-.2778.016-.4997.2427-.4997.526 0 .294.2369.532.5286.532.2918 0 .5282-.238.5282-.532 0-.1675-.0818-.3109-.2022-.4083.2778-.016.4998-.2426.4998-.526 0-.1652-.0799-.3071-.1979-.405.2754-.0184.4945-.2431.4945-.5246 0-.1627-.0766-.3027-.1907-.4.273-.0228.4897-.2461.4897-.5261 0-.1613-.0742-.3013-.1863-.3991.2691-.0257.4824-.2466.4824-.5246 0-.1613-.0746-.3013-.1873-.3992.2682-.0256.4805-.2455.4805-.5221 0-.1609-.0741-.2999-.1858-.3972.2687-.0252.4815-.2456.4815-.5222 0-.1589-.0722-.297-.1815-.3943.2677-.0271.4795-.2475.4795-.5241 0-.158-.0708-.296-.1791-.3938.2653-.03.4743-.248.4743-.5232 0-.1574-.0703-.2954-.1782-.3933.2648-.03.4733-.248.4733-.5226 0-.295-.2378-.5343-.5311-.5343-.2937 0-.5315.2393-.5315.5343 0 .1579.0708.296.1786.3933zM22.4691 1.473c-.2586.036-.4613.25-.4613.5203 0 .1545.0674.2911.1714.3885-.2604.0344-.4651.2494-.4651.5212 0 .1545.0674.2911.1719.389-.2609.0339-.4656.249-.4656.5207 0 .155.0679.2916.1724.3894-.2615.0334-.4661.249-.4661.5212 0 .155.0679.2916.1729.3895-.2615.0334-.4671.249-.4671.5212 0 .155.0684.292.1734.3899-.2615.033-.4671.249-.4671.5212 0 .156.0684.2926.1738.3904-.2624.0325-.468.249-.468.5217 0 .156.0689.293.1748.391-.2629.0319-.4695.2489-.4695.5216 0 .157.0699.2945.1763.3919-.2634.0315-.4709.2485-.4709.5221 0 .295.2378.5343.5311.5343.2937 0 .5315-.2393.5315-.5343 0-.1564-.0698-.294-.1762-.3918.2634-.0315.4709-.2485.4709-.5222 0-.156-.0693-.293-.1753-.391.2629-.0319.4695-.2484.4695-.5216 0-.1555-.0684-.2926-.1743-.3904.2624-.0325.4685-.249.4685-.5217 0-.1555-.0684-.292-.1734-.39.262-.0329.4676-.249.4676-.5211 0-.155-.0679-.2921-.1729-.3895.2615-.0334.4666-.2494.4666-.5212 0-.155-.0674-.2916-.1724-.3894.2615-.0335.4661-.249.4661-.5212 0-.1545-.0674-.2912-.1714-.389.2605-.0339.4651-.249.4651-.5207 0-.1545-.0669-.2911-.1714-.389.261-.0339.4651-.2494.4651-.5207 0-.153-.0655-.2892-.168-.3865.2605-.0354.4646-.251.4646-.5232 0-.2964-.2393-.5367-.534-.5367-.2946 0-.5339.2403-.5339.5367 0 .1546.0669.2916.1704.3895zM23.6089 1.8019c-.2576.0382-.4584.2519-.4584.5217 0 .152.0641.2877.1652.3855-.2571.0383-.4579.252-.4579.5217 0 .1521.064.2878.1647.3856-.2572.0383-.4579.2519-.4579.5217 0 .152.064.2877.1651.3856-.2576.0382-.4584.2519-.4584.5217 0 .152.0641.2877.1652.3855-.2571.0383-.4579.252-.4579.5217 0 .1521.064.2877.1651.3856-.2576.0383-.4583.2524-.4583.5217 0 .152.064.2882.1651.3855-.2571.0383-.4579.2524-.4579.5217 0 .1521.0641.2882.1647.3856-.2571.0388-.4579.2524-.4579.5217 0 .152.064.2882.1651.3856-.2576.0387-.4579.2523-.4579.5216 0 .297.2389.5372.5335.5372.2947 0 .534-.2402.534-.5372a.5344.5344 0 00-.1651-.3855c.2571-.0383.4579-.252.4579-.5217a.5345.5345 0 00-.1652-.3856c.2576-.0382.4584-.2519.4584-.5217a.5344.5344 0 00-.1652-.3855c.2571-.0383.4584-.252.4584-.5217 0-.1521-.0645-.2878-.1651-.3856.2571-.0383.4579-.2519.4579-.5217a.5345.5345 0 00-.1652-.3856c.2576-.0382.4584-.2523.4584-.5217a.5336.5336 0 00-.1652-.3855c.2572-.0383.4579-.2524.4579-.5217a.5335.5335 0 00-.1651-.3856c.2576-.0387.4584-.2523.4584-.5217a.5336.5336 0 00-.1652-.3855c.2571-.0388.4579-.2524.4579-.5217a.5347.5347 0 00-.1647-.3856c.2572-.0387.4579-.2524.4579-.5217 0-.2964-.2388-.5372-.5339-.5372-.2947 0-.5335.2408-.5335.5372 0 .1521.064.2877.1651.3856zM24.7308 2.2112c-.2591.0373-.4613.2514-.4613.5222 0 .153.0655.2896.1676.3875-.2591.0368-.4613.2514-.4613.5222 0 .153.0655.2896.1676.3875-.2591.0368-.4618.2514-.4618.5221 0 .1536.0655.2902.1685.388-.2595.0364-.4627.2514-.4627.5222 0 .154.066.2901.169.388-.26.0363-.4632.2514-.4632.5226 0 .154.066.2907.169.3885-.26.0359-.4637.2514-.4637.5227 0 .1545.0665.2911.17.389-.2605.0353-.4646.2509-.4646.523 0 .1532.0655.2893.1675.3871-.2609.0363-.4651.2529-.4651.5256 0 .155.0665.292.1705.3909-.26.0358-.4637.2509-.4637.5226 0 .2965.2388.5367.534.5367.2946 0 .5335-.2402.5335-.5367 0-.154-.0655-.2901-.1686-.388.262-.0358.4671-.2523.4671-.5255 0-.1546-.0665-.2921-.17-.3904.2595-.0364.4622-.2514.4622-.5222 0-.1545-.0664-.2911-.1694-.389.2604-.0358.4646-.2509.4646-.5231 0-.1536-.0664-.2902-.1695-.388.2605-.0363.4637-.2514.4637-.5232 0-.1535-.0655-.2901-.1685-.388.26-.0363.4632-.2513.4632-.5226 0-.153-.066-.2897-.1686-.3875.2596-.0363.4628-.2514.4628-.5227 0-.153-.0655-.2896-.1681-.3875.2591-.0368.4618-.2514.4618-.5221a.5334.5334 0 00-.1676-.3876c.259-.0368.4618-.2514.4618-.5221 0-.1531-.0655-.2892-.1676-.387.259-.0374.4613-.2515.4613-.5222 0-.297-.2393-.5372-.534-.5372s-.5335.2402-.5335.5372c0 .153.065.2892.1671.387zM25.8189 2.6937c-.2614.0373-.4656.2538-.4656.527 0 .154.0645.2912.1666.3895-.2605.0387-.4637.2543-.4637.527 0 .154.0655.2916.1676.3904-.261.0373-.4651.2538-.4651.527 0 .1545.0659.2921.169.391-.262.0367-.4671.2537-.4671.528 0 .1554.0669.293.171.3918-.2634.0358-.47.2538-.47.5284 0 .156.0679.2946.1729.3934-.2649.0344-.4729.2528-.4729.529 0 .1569.0689.2959.1753.3947-.2667.033-.4767.2528-.4767.53 0 .1569.0689.2959.1753.3947-.2692.032-.481.2533-.481.5328 0 .1589.0703.2989.1781.3987-.2701.0305-.4834.2528-.4834.5328 0 .3013.2427.5449.5417.5449.299 0 .5417-.2436.5417-.5449 0-.1589-.0703-.2989-.1782-.3987.2706-.03.4834-.2528.4834-.5328 0-.1584-.0698-.2984-.1771-.3977.2677-.0324.4776-.2523.4776-.5299 0-.1574-.0684-.296-.1748-.3953.2668-.0324.4762-.2523.4762-.5294 0-.1564-.0674-.2945-.1724-.3938.2649-.0339.4724-.2528.4724-.5285 0-.1554-.0665-.2935-.1705-.3923.2634-.0354.4695-.2534.4695-.528a.5391.5391 0 00-.169-.3909c.2624-.0368.467-.2538.467-.528a.5392.5392 0 00-.1675-.39c.2614-.0377.4651-.2542.4651-.5274a.5398.5398 0 00-.1666-.3895c.2605-.0382.4637-.2543.4637-.527 0-.154-.0655-.2916-.1686-.3904.2596-.0378.4623-.2528.4623-.5246 0-.2984-.2403-.5396-.5364-.5396s-.5364.2412-.5364.5396c0 .153.0645.2897.1666.388zM26.8795 3.2517c-.2667.034-.4767.2543-.4767.5319 0 .157.0679.296.1739.3957-.2673.0335-.4767.2539-.4767.5314 0 .1594.0708.2994.1791.3991-.2687.031-.4805.252-.4805.5305 0 .1593.0712.2988.1796.3981-.2726.0286-.4883.2524-.4883.5343 0 .1594.0708.2993.1791.3991-.2734.0286-.4896.2534-.4896.5367 0 .1623.0736.3042.1853.4045-.2754.0257-.4935.2514-.4935.5353 0 .1632.0751.3056.1883.4054-.2812.0213-.5051.2514-.5051.5396 0 .1661.0775.31.1936.4103-.2851.0174-.5124.2499-.5124.541 0 .1696.0809.3154.2013.4156-.2918.0102-.5267.248-.5267.544 0 .3023.2441.5474.5445.5474.3005 0 .5441-.2451.5441-.5474 0-.1695-.0809-.3153-.2013-.4156.2918-.0102.5268-.248.5268-.544 0-.1661-.0775-.31-.1936-.4102.2851-.0175.5123-.25.5123-.5411 0-.1647-.076-.3076-.1901-.4083.2792-.0214.5017-.25.5017-.5367 0-.1614-.0727-.3023-.183-.402.2769-.0253.4964-.2525.4964-.5378 0-.1608-.0717-.3017-.181-.402.2715-.029.4863-.2524.4863-.5338 0-.1608-.0718-.3013-.1815-.401.271-.0287.4848-.251.4848-.5315 0-.1579-.0693-.2969-.1767-.3962.2706-.0305.4834-.2528.4834-.5333 0-.157-.0679-.296-.1733-.3952.2667-.034.4762-.2544.4762-.532 0-.1573-.0684-.2963-.1743-.3961.2653-.034.4733-.2529.4733-.529 0-.2993-.2412-.542-.5388-.542-.298 0-.5393.2427-.5393.542 0 .1565.0674.2945.1724.3933z" fill="#231F20"/><path d="M27.9041 3.8815c-.2759.0267-.494.2529-.494.5372 0 .1623.0732.3037.1839.404-.2768.0261-.4959.2528-.4959.5377 0 .1637.0751.306.1883.4068-.2803.0223-.5032.2514-.5032.5392 0 .1656.077.309.1926.4093-.2841.0184-.5104.2504-.5104.541 0 .1681.0795.313.1979.4132-.2889.0136-.5205.249-.5205.543 0 .171.0824.3173.2047.418a.5444.5444 0 00-.5331.545c0 .1734.0853.3211.21.4214h-.0005c-.3019 0-.547.246-.547.5503 0 .1831.0949.3376.2316.4374-.0101-.0005-.0188-.0058-.0289-.0058-.3023 0-.5469.2465-.5469.5502 0 .1977.1088.3628.2643.4597-.0255-.0034-.0482-.015-.0746-.015-.3024 0-.547.2465-.547.5503 0 .3037.2446.5502.547.5502.3019 0 .5469-.2465.5469-.5502 0-.1977-.1093-.3629-.2648-.4602.0255.0039.0482.0155.0751.0155.3019 0 .5465-.2466.5465-.5503 0-.1831-.0948-.3376-.2316-.4379.0101.001.0188.0063.0294.0063.3019 0 .547-.2465.547-.5502 0-.1744-.0857-.3231-.2119-.4244.3005 0 .5441-.245.5441-.5473 0-.171-.0823-.3173-.2046-.4176a.545.545 0 00.533-.5454c0-.168-.0799-.3129-.1984-.4136.2889-.0131.521-.2485.521-.5426 0-.1656-.0771-.3095-.1926-.4098.2841-.0184.5104-.2504.5104-.5405 0-.1638-.0747-.3062-.1878-.407.2802-.0222.5027-.2513.5027-.539 0-.1618-.0727-.3033-.184-.4035.2769-.0262.496-.2529.496-.5382 0-.1618-.0727-.3032-.1835-.4035.274-.0271.4907-.2519.4907-.5348 0-.3008-.2427-.5449-.5417-.5449-.2995 0-.5417.2441-.5417.545 0 .1608.0717.3012.1815.401z" fill="#231F20"/><path d="M28.8885 4.579c-.2875.0164-.5171.2514-.5171.5444 0 .1681.0794.313.1974.4142-.2899.0135-.5224.25-.5224.5454 0 .1705.0818.3168.2032.4175a.5479.5479 0 00-.5331.5479c0 .1734.0848.3211.2095.4224-.3014.001-.5455.2465-.5455.5498 0 .182.0938.3356.2291.4354-.0091 0-.0163-.0048-.0255-.0048-.3019 0-.5469.246-.5469.5502 0 .1928.1049.3541.2537.4525-.0202-.0025-.0385-.0122-.0597-.0122-.3019 0-.5465.2466-.5465.5503 0 .2039.1151.3744.2788.4694-.0328-.0058-.0626-.0194-.0973-.0194-.3033 0-.5494.2475-.5494.5527 0 .2165.1267.3991.3072.4902-.0457-.0126-.09-.0281-.1391-.0281-.3048 0-.5523.2485-.5523.5551 0 .3071.2475.5556.5523.5556s.5523-.2485.5523-.5556c0-.2175-.1276-.4011-.3087-.4921.0453.0121.0891.0276.1377.0276.3039 0 .5499-.2475.5499-.5527 0-.2049-.116-.3764-.2807-.4718.0322.0058.0621.0194.0958.0194.3024 0 .547-.2466.547-.5503 0-.1928-.1045-.3546-.2538-.4524.0207.002.0385.0121.0597.0121.3024 0 .547-.2466.547-.5503 0-.182-.0934-.3356-.2287-.436.0087.0006.0164.0054.025.0054.3024 0 .547-.2465.547-.5503 0-.1734-.0847-.3216-.2094-.4223.3014-.001.5455-.2466.5455-.5498 0-.171-.0819-.3173-.2027-.418a.5476.5476 0 00.5325-.5474c0-.1686-.079-.3134-.1974-.4146.2903-.0136.5224-.25.5224-.545 0-.1676-.078-.312-.195-.4131.2855-.0165.5138-.2495.5138-.5411 0-.3028-.2437-.5479-.5446-.5479-.3005 0-.5441.2451-.5441.5479 0 .1656.0771.3095.1931.4098z" fill="#231F20"/><path d="M29.6205 4.9204c0 .174.0848.3221.21.4234-.3019 0-.5465.246-.5465.5498 0 .1811.0924.3342.2268.4345-.0077-.0005-.0145-.0049-.0227-.0049-.3019 0-.5469.2466-.5469.5503 0 .1898.1015.3492.247.448-.0174-.0014-.0323-.0102-.0501-.0102-.3019 0-.547.2466-.547.5503 0 .1981.1093.3633.2653.4602-.0265-.0039-.0501-.0155-.078-.0155-.3033 0-.5494.2475-.5494.5527 0 .2063.117.3793.2836.4742-.0351-.0068-.0679-.0213-.1054-.0213-.3048 0-.5523.249-.5523.5556 0 .2199.1295.4059.3139.496-.0481-.0141-.0953-.03-.1478-.03-.3048 0-.5522.2484-.5522.5555 0 .3067.2474.5556.5522.5556s.5523-.2489.5523-.5556c0-.2199-.1295-.4059-.3139-.496.0481.0136.0953.0301.1478.0301.3048 0 .5523-.249.5523-.5556 0-.2073-.118-.3812-.2856-.4767.0352.0068.0674.0209.1045.0209.3038 0 .5499-.247.5499-.5527 0-.1991-.1103-.3652-.2673-.4626.0265.0039.0496.0155.0771.0155.3019 0 .547-.2466.547-.5503 0-.1899-.1016-.3487-.247-.448.0173.0019.0322.0101.05.0101.3024 0 .547-.246.547-.5502 0-.1812-.0924-.3338-.2268-.434.0077.0004.0145.0043.0226.0043.3019 0 .547-.246.547-.5503 0-.1734-.0852-.322-.2099-.4228.3014 0 .5465-.246.5465-.5503 0-.3037-.2451-.5498-.547-.5498-.3024 0-.547.2461-.547.5498z" fill="#231F20"/><path d="M30.497 5.7322c0 .1967.1079.3609.262.4582-.0246-.0034-.0458-.0145-.0708-.0145-.3024 0-.547.2466-.547.5503 0 .2039.1151.3744.2788.4693-.0328-.0058-.0626-.0193-.0968-.0193-.3038 0-.5499.2475-.5499.5527 0 .2136.1243.3937.301.4858-.0419-.0102-.0824-.0257-.1276-.0257-.3034 0-.5494.2475-.5494.5527 0 .2248.1343.416.326.5028-.0535-.0174-.1074-.034-.1661-.034-.3053 0-.5523.249-.5523.5557 0 .3066.247.5556.5523.5556.3047 0 .5522-.249.5522-.5556 0-.2257-.1353-.418-.3274-.5052.053.017.1064.0334.1647.0334.3038 0 .5498-.2475.5498-.5527 0-.2136-.1242-.3938-.3009-.4858.0419.0101.0823.0256.1276.0256.3033 0 .5494-.247.5494-.5526 0-.205-.1161-.3764-.2802-.4719.0322.0059.0616.0194.0958.0194.3019 0 .547-.246.547-.5502 0-.1962-.1084-.3604-.262-.4578.0241.003.0458.014.0708.014.3024 0 .547-.246.547-.5502 0-.3037-.2446-.5503-.547-.5503-.3019 0-.547.2466-.547.5503z" fill="#231F20"/><path d="M31.3154 6.6008c0 .2175.1281.4016.3101.4917-.0457-.0122-.0905-.0281-.1401-.0281-.3038 0-.5499.2475-.5499.5526 0 .3052.2461.5527.5499.5527.3034 0 .5494-.2475.5494-.5527 0-.2174-.1281-.4015-.3096-.4916.0457.0121.0905.028.1401.028.3033 0 .5494-.2474.5494-.5526 0-.3052-.2461-.5532-.5494-.5532-.3038 0-.5499.248-.5499.5532z" fill="#231F20"/><path d="M32.0757 7.5216c0 .3071.247.5556.5523.5556.3047 0 .5517-.2485.5517-.5556 0-.3066-.247-.5556-.5517-.5556-.3053 0-.5523.249-.5523.5556zM32.7686 8.4913c0 .3114.2503.5633.5599.5633.3091 0 .56-.2519.56-.5633 0-.311-.2509-.5634-.56-.5634-.3096 0-.5599.2524-.5599.5634z" fill="#231F20"/><path d="M33.4179 9.419c-.0616-.2437-.2715-.4273-.533-.4273-.297 0-.5344.235-.5532.5295-.0453-.264-.2634-.4684-.5388-.4684-.3077 0-.5575.2509-.5575.5609 0 .3095.2498.5604.5575.5604.2961 0 .5325-.2334.5508-.5265.0453.2654.2649.4708.5412.4708.2793 0 .5003-.2083.5432-.477.0616.245.2725.43.5354.43.3105 0 .5624-.2533.5624-.5657 0-.313-.2519-.5663-.5624-.5663-.2803 0-.5027.2098-.5456.4796z" fill="#231F20"/><path d="M33.998 10.3669c-.0872-.201-.2855-.3425-.5176-.3425-.2557 0-.4632.1735-.533.4074-.0814-.2155-.2851-.3705-.5278-.3705-.272 0-.4887.1961-.544.4529-.0713-.2306-.2774-.4006-.5297-.4006-.2932 0-.5267.2281-.5527.5163-.0511-.2572-.2658-.4548-.5364-.4548-.3077 0-.5576.2509-.5576.5609 0 .3095.2499.5604.5576.5604.2903 0 .5214-.2257.5474-.511.0511.2601.2682.4602.5417.4602.2692 0 .4834-.1938.5388-.4476.0718.233.2793.4059.5349.4059.2567 0 .4652-.1748.5355-.4102.0813.2145.2836.3681.5253.3681.2436 0 .4468-.157.5262-.3749.0877.2039.2885.3468.5229.3468.3154 0 .5711-.2572.5711-.574 0-.3173-.2557-.574-.5711-.574-.247 0-.4526.1598-.5315.3812z" fill="#231F20"/><path d="M34.5077 11.4156c-.0939-.1875-.2822-.3193-.5051-.3193-.2364 0-.4391.1449-.5258.3512-.0924-.1899-.2822-.3235-.5065-.3235-.2413 0-.4444.153-.5268.3666-.0891-.1976-.285-.3371-.5152-.3371-.2504 0-.4564.1657-.532.3919-.0843-.2069-.286-.3531-.522-.3531-.2672 0-.481.1903-.5397.4408-.0732-.2272-.2783-.3948-.5282-.3948-.2875 0-.5147.2194-.5494.4989-.0568-.2509-.2691-.4423-.5359-.4423-.3091 0-.56.2524-.56.5634 0 .3114.2509.5633.56.5633.2855 0 .5123-.2179.5465-.496.0568.2524.2706.4452.5388.4452.2653 0 .4781-.1894.5369-.4384.0731.2286.2792.3972.531.3972.249 0 .4536-.1642.5292-.389.0847.2083.287.3561.5248.3561.2412 0 .4449-.1531.5268-.3672.0895.1981.285.3371.5152.3371a.568.568 0 00.5233-.3482c.0925.1913.2832.3259.509.3259.2321 0 .43-.1404.519-.3405.0944.1875.2822.3192.5051.3192.3149 0 .5706-.2567.5706-.574 0-.3168-.2557-.574-.5706-.574-.2321 0-.43.1405-.519.3406z" fill="#231F20"/><path d="M34.9442 12.5123c-.0963-.1788-.2783-.3047-.495-.3047-.2263 0-.4179.1351-.5099.3274-.0953-.1821-.2788-.31-.4973-.31-.2288 0-.4233.1376-.5133.3338-.0939-.186-.2802-.3168-.5012-.3168-.2312 0-.4286.1405-.5172.3395-.0934-.1884-.2826-.3211-.506-.3211-.2359 0-.4382.1443-.5253.3497-.093-.1904-.2831-.324-.508-.324-.2427 0-.4468.153-.5292.3676-.0905-.1976-.286-.3362-.5166-.3362-.2605 0-.4714.1793-.5393.4195-.0794-.215-.2802-.3696-.5214-.3696-.2827 0-.5066.2141-.5446.4878-.0587-.2485-.2701-.4374-.5349-.4374-.3091 0-.56.2524-.56.5634 0 .3114.2509.5638.56.5638.2826 0 .5065-.2141.545-.4878.0583.2485.2697.4369.5345.4369.2547 0 .4612-.1744.5291-.4088.0795.2204.2851.3802.5316.3802.2427 0 .4468-.1535.5296-.3681.0901.1976.286.3367.5162.3367.2359 0 .4382-.1444.5253-.3498.0929.1904.2831.3241.508.3241.2325 0 .4314-.141.52-.342.0934.187.2807.3187.5032.3187.2287 0 .4227-.138.5127-.3337.0939.1855.2803.3163.5018.3163.2248 0 .415-.1342.507-.325.0953.1836.2802.3129.5002.3129.222 0 .4093-.1308.5037-.3168.0968.1802.2797.3071.4978.3071.3169 0 .5735-.2582.5735-.5764 0-.3188-.2566-.5769-.5735-.5769-.2234 0-.4116.1322-.5065.3197z" fill="#231F20"/><path d="M35.305 13.6322c-.1006-.1705-.2768-.2897-.4877-.2897-.2172 0-.3992.1255-.4974.3038-.0992-.1725-.2769-.2941-.4892-.2941-.2196 0-.404.1284-.5003.3105-.0977-.1753-.2773-.2988-.4911-.2988-.222 0-.4093.1312-.5036.3177-.0958-.1787-.2774-.3042-.4931-.3042-.2243 0-.4141.1337-.5065.3236-.0949-.1821-.2788-.3105-.4974-.3105-.2263 0-.4184.1356-.5094.3289-.0949-.185-.2812-.3153-.5022-.3153-.2311 0-.4285.1399-.5181.3385-.0939-.1864-.2817-.3182-.5041-.3182-.2364 0-.4391.1448-.5258.3517-.0929-.1909-.2836-.3255-.5089-.3255-.248 0-.4536.1613-.5321.3836-.0866-.202-.286-.3439-.5185-.3439-.3125 0-.5658.2548-.5658.5687 0 .3138.2533.5686.5658.5686.2446 0 .4477-.1584.5267-.3768.0872.2044.2889.3478.5239.3478a.5709.5709 0 00.5262-.3512c.0925.1908.2832.325.5085.325.2316 0 .4285-.1395.5181-.3386.0939.187.2817.3183.5041.3183.2282 0 .4213-.1366.5128-.3314.0944.1836.2793.3125.4988.3125.2244 0 .4141-.1337.5065-.3231.0949.1816.2788.31.4974.31.2206 0 .4064-.1298.5003-.3149.0963.1802.2788.3067.4964.3067.2181 0 .4011-.127.4969-.3076.0982.1768.2788.3013.4945.3013s.3963-.1245.494-.3013c.0997.1739.2788.2969.4926.2969s.3924-.1226.4921-.2964c.1006.1719.2783.2925.4906.2925.3192 0 .5783-.2606.5783-.5822 0-.3212-.2591-.5818-.5783-.5818-.2152 0-.3953.1236-.495.2989z" fill="#231F20"/><path d="M35.5797 14.7603c-.105-.155-.2735-.263-.4738-.263-.2095 0-.3847.1172-.4878.2838-.103-.1632-.2759-.278-.4824-.278-.2109 0-.3876.1187-.4892.2882-.1021-.1657-.2759-.2819-.4835-.2819-.2084 0-.3832.1172-.4848.2838-.1035-.1685-.2802-.2872-.4911-.2872-.2157 0-.3963.123-.4984.2974-.1011-.1652-.2744-.2809-.4815-.2809-.2166 0-.3977.1249-.4964.3022-.0992-.1719-.2764-.293-.4882-.293-.2191 0-.4035.1283-.4998.31-.0977-.1754-.2769-.2984-.4906-.2984-.2196 0-.4045.1284-.4998.3114-.0978-.1797-.2807-.3056-.4984-.3056-.2244 0-.4136.1327-.5084.3207-.0978-.1797-.2807-.3062-.4989-.3062-.3182 0-.5758.2592-.5758.5794 0 .3197.2576.5793.5758.5793.2244 0 .4136-.1327.5085-.3212.0977.1797.2807.3067.4988.3067.2225 0 .4103-.1313.5061-.3168.0972.1758.2773.3003.4921.3003.2176 0 .4001-.1269.4964-.3071.0982.1763.2788.3008.494.3008.2147 0 .3948-.1235.493-.2994.0997.1735.2783.2955.4916.2955.2095 0 .3847-.1187.4854-.2867.1025.1709.2812.2916.4945.2916.2128 0 .3914-.1202.494-.2916.1025.1642.2754.279.4819.279.2095 0 .3843-.1177.4859-.2853.1025.1671.2773.2843.4868.2843.208 0 .3818-.1163.4843-.2809.1036.1646.2774.2804.4859.2804.2012 0 .3702-.1095.4752-.2659.1054.1613.286.2683.4921.2683.3255 0 .5893-.2654.5893-.5924 0-.3274-.2638-.5929-.5893-.5929-.2071 0-.3886.1085-.4935.2713z" fill="#231F20"/><path d="M35.7906 15.917c-.1073-.1492-.2807-.2476-.4781-.2476-.1979 0-.3717.0989-.4791.249-.1078-.1497-.2812-.248-.4786-.248a.5898.5898 0 00-.4897.2616c-.1064-.1507-.2725-.2548-.4699-.2548-.2041 0-.3756.1114-.4805.2712-.105-.1588-.2759-.2702-.4801-.2702-.207 0-.3803.1143-.4848.2775-.104-.1589-.274-.2703-.4777-.2703-.2065 0-.3799.1148-.4829.2785-.103-.1622-.2754-.2765-.4815-.2765-.208 0-.3818.1157-.4844.2809-.103-.1637-.2759-.2785-.4829-.2785-.2099 0-.3862.1182-.4878.2863-.1025-.1647-.2759-.28-.4829-.28-.2027 0-.3722.1109-.4757.2698-.1045-.1671-.2884-.279-.4993-.279-.3269 0-.5918.2664-.5918.5953s.2649.5953.5918.5953c.2128 0 .3977-.1143.5017-.2838.104.1564.2725.2664.4733.2664.2085 0 .3833-.1173.4849-.2839.1025.1662.2773.2829.4858.2829.208 0 .3818-.1158.4844-.2809.103.1637.2763.2785.4829.2785.207 0 .3799-.1153.4829-.279.1031.1627.2755.2766.4815.2766.2042 0 .3751-.1119.4786-.2723.1045.1623.2774.2761.4839.2761.2047 0 .3761-.1119.481-.2712.105.1588.2759.2698.4796.2698.1979 0 .3645-.1047.4704-.2558a.591.591 0 00.4892.2601c.1979 0 .3717-.0988.4791-.2489.1074.1496.2812.248.4786.248.1979 0 .3712-.0984.4791-.248.1074.1492.2807.247.4781.247.3265 0 .5918-.2664.5918-.5953 0-.3284-.2653-.5948-.5918-.5948-.1974 0-.3717.0983-.4791.248z" fill="#231F20"/><path d="M36.3879 16.8537c-.1945 0-.3659.0945-.4752.2389-.1098-.1444-.2807-.2389-.4753-.2389-.1945 0-.3659.095-.4757.2393-.1093-.1443-.2807-.2393-.4752-.2393-.1955 0-.3679.096-.4772.2418-.1088-.1444-.2797-.2388-.4738-.2388-.1969 0-.3702.0973-.479.2455-.1079-.1453-.2783-.2402-.4724-.2402-.196 0-.3683.0969-.4757.2446-.1079-.1473-.2802-.2441-.4762-.2441-.194 0-.365.0954-.4728.2407-.1084-.1487-.2822-.2461-.4796-.2461-.1955 0-.3674.096-.4767.2427-.1088-.1463-.2807-.2422-.4762-.2422-.1959 0-.3683.0964-.4771.2432-.1088-.1468-.2812-.2427-.4767-.2427-.1984 0-.3727.0983-.481.2475-.1079-.1458-.2793-.2417-.4743-.2417-.3264 0-.5912.2664-.5912.5953 0 .3284.2648.5949.5912.5949.195 0 .3669-.0959.4748-.2427.1083.1497.2826.2475.4805.2475.196 0 .3684-.0964.4772-.2432.1088.1468.2807.2427.4766.2427.196 0 .3679-.0959.4767-.2422.1088.1463.2807.2422.4762.2422.1979 0 .3712-.0978.4801-.2465.1078.1453.2783.2407.4723.2407.196 0 .3683-.0969.4762-.2446.1079.1477.2802.2446.4757.2446.1941 0 .3645-.0954.4724-.2402.1088.1482.2821.2451.479.2451.1941 0 .365-.0945.4738-.2388.1098.1458.2817.2412.4772.2412.195 0 .3659-.0945.4757-.2393.1093.1443.2807.2393.4752.2393.1946 0 .3655-.095.4753-.2393.1093.1443.2807.2393.4752.2393.3313 0 .5995-.2703.5995-.6031 0-.3332-.2682-.6031-.5995-.6031z" fill="#231F20"/><path d="M36.8749 18.6547c0 2.5804-2.0796 4.672-4.6445 4.672-2.5649 0-4.6445-2.0916-4.6445-4.672 0-2.5803 2.0796-4.6724 4.6445-4.6724 2.5649 0 4.6445 2.0921 4.6445 4.6724z" fill="#231F20"/></svg>