<svg xmlns="http://www.w3.org/2000/svg" xmlns:xlink="http://www.w3.org/1999/xlink" viewBox="0 0 56.483 87.452">
  <defs>
    <linearGradient id="linear-gradient" y1="0.5" x2="1" y2="0.5" gradientUnits="objectBoundingBox">
      <stop offset="0.057" stop-color="#9ac3ff"/>
      <stop offset="0.255" stop-color="#94bffd"/>
      <stop offset="0.512" stop-color="#84b3f7"/>
      <stop offset="0.799" stop-color="#6a9fee"/>
      <stop offset="0.915" stop-color="#5d96e9"/>
    </linearGradient>
    <linearGradient id="linear-gradient-2" x1="0.5" y1="0" x2="0.5" y2="1" xlink:href="#linear-gradient"/>
  </defs>
  <g id="Group_167" data-name="Group 167" transform="translate(-132.848 8)">
    <text id="_" data-name="?" transform="translate(146.25 52)" fill="#ff6a0d" font-size="57" font-family="Roboto-Black, Roboto" font-weight="800"><tspan x="0" y="0">?</tspan></text>
    <g id="Слой_2" data-name="Слой 2" transform="translate(132.848 7.764)">
      <g id="Слой_1" data-name="Слой 1" transform="translate(0)">
        <path id="Path_150" data-name="Path 150" d="M168.459,89.238l-.405,7.64,4.557,1.189,1.6-7.79Z" transform="translate(-130.577 -69.034)" fill="#ffbcb6"/>
        <path id="Path_151" data-name="Path 151" d="M124.826,127.654s-6.389.443-6.989,1.206c-1.347,1.713.081,6.641-.652,8.694-.669,1.874-2.624,6.081-4.564,6.52-.5.114-1.793-1.014-1.793-1.014s1.171,3.887,2.315,4.336c1.745.684,5.844-1.048,7.086-2.452,2.578-2.913,7.606-11.479,6.555-15.224C126.59,129.034,124.826,127.654,124.826,127.654Z" transform="translate(-86.306 -98.753)" fill="url(#linear-gradient)"/>
        <path id="Path_152" data-name="Path 152" d="M80.376,172.378s-.106,4.527-.623,5.923c-.429,1.155-1.7,3.5-2.806,4.053-5.248,2.609-23.766-.2-23.766-.2L42.16,172.8l-2.306-13.766-1.63-7.811c-.67-3.21,4.282-6.616,7.56-6.725l.272-.009a5.282,5.282,0,0,1,5.045,3.232l3.513,8.359,7.639,11.882Z" transform="translate(-30.093 -111.775)" fill="#24266f"/>
        <path id="Path_153" data-name="Path 153" d="M156.907,117.219l2.939,1.029,2.278-.514a44.581,44.581,0,0,1,6.759,5.29c2.741,3.038,3.042,5.719,3.784,8.007,1.217,3.758,2.824,11.592,2.841,15.541.008,1.951.318,6.655-1.337,7.687-4.438,2.766-20.388-4.679-20.388-4.679l2.005-19.886Z" transform="translate(-119.537 -90.68)" fill="#9ac3ff"/>
        <path id="Path_154" data-name="Path 154" d="M169.742,91.024l5.639.635-.208,1.077-5.608-.945Z" transform="translate(-131.745 -70.416)" fill="#e1aca6"/>
        <path id="Path_155" data-name="Path 155" d="M145.956,21.139S144.5,24.3,144.233,25.1c-.319.97-1.708,2.751-1.585,3.765.175,1.441,2.268,3.839,3.467,4.656,1.4.955,4.862,1.54,6.538,1.783,1.1.16,4.458.1,4.458.1l5.052-2.972-.5-7.529L157.9,19.154l-2.774-1.189s-1.536,1.732-2.08,2.279a9.259,9.259,0,0,1-1.288,1.189c-.337.2-2.862,1.47-3.683,1.405C147.449,22.789,145.956,21.139,145.956,21.139Z" transform="translate(-110.917 -13.898)" fill="#ffbcb6"/>
        <path id="Path_156" data-name="Path 156" d="M11.929,264.355l-1.358,2.767-8.456,1.538a1.98,1.98,0,0,0-1.594,1.595L0,273.126l18.6.62-1.24-8.68Z" transform="translate(0 -203.914)" fill="#ffad00"/>
        <path id="Path_157" data-name="Path 157" d="M89.353,143.557a119.339,119.339,0,0,1-4.216,11.465c-.692,1.359-10.157,11.42-11.5,12.151-4.086,2.234-12.634,1.4-17.286,1.19-2.194-.1-8.342-2.753-8.342-2.753s3.635-4.372,4.537-7.092a49.432,49.432,0,0,0,.972-6.409l11.071,5.2s14.8-16.968,20.992-18.179C87.508,138.754,89.353,143.557,89.353,143.557Z" transform="translate(-37.714 -107.615)" fill="url(#linear-gradient-2)"/>
        <path id="Path_158" data-name="Path 158" d="M37.315,178.415l-6.755-4.452s-.383-2.8-.447-3.734c-.085-1.232-.09-4.94-.09-4.94l-1.494,4.277s-1.753,5.785-1.022,7.541c.858,2.059,7.121,5.377,7.121,5.377Z" transform="translate(-21.711 -127.867)" fill="#ffbcb6"/>
        <path id="Path_159" data-name="Path 159" d="M38.241,186.148l1.946-4.163,1.168.2-1.5,6.187Z" transform="translate(-30.153 -140.783)" fill="#ffbcb6"/>
        <path id="Path_160" data-name="Path 160" d="M198.312,17.641s1.249-.435,1.462-.792c.42-.7-.415-2.576,0-3.283.329-.558,2.268-1.256,2.268-1.256s-1.006-1.031-1.368-1.345c-.541-.47-1.782-1.224-2.278-1.742a32.519,32.519,0,0,1-2.215-3.167s-.849-.757-.879-1.109c-.073-.85,1.066-2.358,1.631-3A19.329,19.329,0,0,1,199.662,0s.8,2.008,1.169,2.621a45.039,45.039,0,0,0,3.856,4.809c.758.846,2.771,2.164,3.213,3.211a7.088,7.088,0,0,1-.021,3.71c-.181.534-1.139,1.279-1.364,1.8-.28.643-.1,2.171-.479,2.762a8.83,8.83,0,0,1-3.092,2.147,41.863,41.863,0,0,1-5.985,1.377" transform="translate(-151.654)" fill="#04004a"/>
        <path id="Path_161" data-name="Path 161" d="M45.09,278.759l-.643.254-1-2.323.774-.129Z" transform="translate(-34.181 -213.947)" fill="#fff"/>
      </g>
    </g>
  </g>
</svg>
