<svg id="projects-search" data-name="projects-search" xmlns="http://www.w3.org/2000/svg" xmlns:xlink="http://www.w3.org/1999/xlink" viewBox="0 0 78.791 79.8">
  <defs>
    <linearGradient id="linear-gradient" x1="0.5" x2="0.5" y2="1" gradientUnits="objectBoundingBox">
      <stop offset="0.196" stop-color="#24266f"/>
      <stop offset="0.915" stop-color="#242653"/>
    </linearGradient>
    <linearGradient id="linear-gradient-2" x1="0.5" y1="-0.656" x2="0.5" y2="1.656" gradientUnits="objectBoundingBox">
      <stop offset="0.197" stop-color="#65353e"/>
      <stop offset="0.915" stop-color="#45273a"/>
    </linearGradient>
    <linearGradient id="linear-gradient-3" x1="0" y1="0.5" x2="1" y2="0.5" xlink:href="#linear-gradient-2"/>
    <linearGradient id="linear-gradient-4" y1="0.5" x2="1" y2="0.5" gradientUnits="objectBoundingBox">
      <stop offset="0.196" stop-color="#24266f"/>
      <stop offset="0.792" stop-color="#242653"/>
    </linearGradient>
  </defs>
  <g id="Слой_1" data-name="Слой 1">
    <path id="Path_55" data-name="Path 55" d="M82.9,49.736l-4.726,5.216,10.308,1.9Z" transform="translate(-58.363 -41.453)" fill="#bf266f"/>
    <path id="Path_56" data-name="Path 56" d="M200.439,107.189s5.035,1.912,6.244,3.179a12.662,12.662,0,0,1,2.357,5.222c.144,1.021-.811,3.077-.588,4.084.283,1.282,2.868,4.4,2.868,4.4L208.533,126a28.936,28.936,0,0,1-2.4-4.79c-.336-1.484.621-4.651.116-6.086a9.5,9.5,0,0,0-2.553-3.062A30.26,30.26,0,0,0,199.1,109.9Z" transform="translate(-137.822 -79.203)" fill="#24266f"/>
    <path id="Path_57" data-name="Path 57" d="M236.872,111.2l2.416,3.13,2.072-5.513Z" transform="translate(-162.638 -80.275)" fill="#bf266f"/>
    <path id="Path_58" data-name="Path 58" d="M192.008,66.67l-8.833-3.721,1.918,5.639Z" transform="translate(-140.054 -62.833)" fill="#bf266f"/>
    <path id="Path_59" data-name="Path 59" d="M141.239,52.9l2.416,3.13,2.072-5.513Z" transform="translate(-99.801 -41.965)" fill="#bf266f"/>
    <ellipse id="Ellipse_18" data-name="Ellipse 18" cx="2.5" cy="2.5" rx="2.5" ry="2.5" transform="translate(65.489 23.095)" fill="#60cd6f"/>
    <circle id="Ellipse_19" data-name="Ellipse 19" cx="2.6" cy="2.6" r="2.6" transform="translate(53.448 3.511)" fill="#bf266f"/>
    <ellipse id="Ellipse_20" data-name="Ellipse 20" cx="2.5" cy="2.5" rx="2.5" ry="2.5" transform="translate(61.475 7.63)" fill="#60cd6f"/>
    <ellipse id="Ellipse_21" data-name="Ellipse 21" cx="2.017" cy="2.017" rx="2.017" ry="2.017" transform="translate(31.628)" fill="#60cd6f"/>
    <path id="Path_60" data-name="Path 60" d="M77.531,91.333a2.107,2.107,0,0,1-1.32-1.109,1.207,1.207,0,0,1,.081-.982.8.8,0,0,1,.569-.42,4.124,4.124,0,0,1-.605-.159,1.754,1.754,0,0,1-1.226-1.509,1.878,1.878,0,0,1,.884-1.74,2.348,2.348,0,0,1-.479-4,3.611,3.611,0,0,1,1.6-.648l.093.013.079.051,0-.01a2.144,2.144,0,0,1-.8-1.579,3.053,3.053,0,0,1,.86-2.293,5.541,5.541,0,0,1,4.088-1.283,2.477,2.477,0,0,1,.458-2.736,2.44,2.44,0,0,1,2.543-.549,1.215,1.215,0,0,1,.178.077,1.8,1.8,0,0,1,2.4-2.159,1.758,1.758,0,0,1,.761.532,2.371,2.371,0,0,1,2.274-1.879,2.229,2.229,0,0,1,.732.14,2.362,2.362,0,0,1,1.508,1.777,2.318,2.318,0,0,1,2.567-.877l.067.025a2.3,2.3,0,0,1,1.468,2.208,1.673,1.673,0,0,1,1.52-.166,1.581,1.581,0,0,1,.666.464,1.663,1.663,0,0,1-.169,2.19,1.959,1.959,0,0,1,1.564-.052,2.219,2.219,0,0,1,1.4,1.692,2.071,2.071,0,0,1,2.013-.321,1.8,1.8,0,0,1,.749.506,2.039,2.039,0,0,1-.143,2.766,1.733,1.733,0,0,1,.687.113,2.346,2.346,0,0,1,1.432,1.923,3.329,3.329,0,0,1-1.38,2.786,2.97,2.97,0,0,1,1.43,2.957,3.009,3.009,0,0,1-2.242,2.38l.025.02a1.177,1.177,0,0,1,.7.772,2.111,2.111,0,0,1-.186,1.705,4.585,4.585,0,0,1-1.7,1.362l.157.047.085.152a3.477,3.477,0,0,1,.242.58l.009.035v.032a1.931,1.931,0,0,1-.3,1.011l-.014.038a3.164,3.164,0,0,1-4.919,1c-.118.555-.816.764-1.409.719a4.12,4.12,0,0,1-1.157-.254,4.35,4.35,0,0,1-1.627-1.071l-.3-.316.332-.28a7.5,7.5,0,0,0,1.577-1.788l.16-.257.288.074a3.086,3.086,0,0,0,2.331-.269,2.237,2.237,0,0,0,1.109-2.289,1.836,1.836,0,0,0-.792-1.153,1.857,1.857,0,0,0-.365-.19l-.507-.188.324-.435a7.417,7.417,0,0,0,1.051-6.511,8.372,8.372,0,0,0-5-5.183l-.038-.014a9.49,9.49,0,0,0-7.225.35,8.682,8.682,0,0,0-4.977,6l-.055.3-.295.032a2.4,2.4,0,0,0-1.487.723,2.055,2.055,0,0,0-.328,2.327,1.75,1.75,0,0,0,.946.8,1.82,1.82,0,0,0,.665.115l.494-.012-.084.491a7.421,7.421,0,0,0,.039,2.746l.061.306-.279.136A4.947,4.947,0,0,1,77.531,91.333Z" transform="translate(-55.967 -54.079)" fill="#04004a"/>
    <path id="Path_61" data-name="Path 61" d="M67.215,84.568a2.107,2.107,0,0,1-1.623-.582,1.207,1.207,0,0,1-.266-.949.8.8,0,0,1,.388-.592,4.122,4.122,0,0,1-.623.061,1.754,1.754,0,0,1-1.674-.99,1.878,1.878,0,0,1,.224-1.939A2.348,2.348,0,0,1,61.806,76a3.611,3.611,0,0,1,1.276-1.163l.092-.02.092.02v-.01a2.144,2.144,0,0,1-1.3-1.2,3.053,3.053,0,0,1,.01-2.449,5.541,5.541,0,0,1,3.388-2.623,2.477,2.477,0,0,1-.52-2.725,2.44,2.44,0,0,1,2.194-1.4,1.214,1.214,0,0,1,.194.01,1.8,1.8,0,0,1,1.5-2.858,1.758,1.758,0,0,1,.9.234,2.371,2.371,0,0,1,1.48-2.551,2.229,2.229,0,0,1,.735-.122,2.362,2.362,0,0,1,2.031,1.143,2.318,2.318,0,0,1,2.1-1.714h.072A2.3,2.3,0,0,1,78.2,60.125a1.673,1.673,0,0,1,1.367-.684,1.581,1.581,0,0,1,.786.2,1.663,1.663,0,0,1,.6,2.112,1.959,1.959,0,0,1,1.449-.592,2.219,2.219,0,0,1,1.9,1.1,2.071,2.071,0,0,1,1.776-1,1.8,1.8,0,0,1,.877.214,2.039,2.039,0,0,1,.827,2.644,1.733,1.733,0,0,1,.684-.133,2.346,2.346,0,0,1,2.01,1.306,3.329,3.329,0,0,1-.326,3.092,2.97,2.97,0,0,1,2.368,2.276,3.009,3.009,0,0,1-1.276,3.011l.031.01a1.177,1.177,0,0,1,.929.48,2.111,2.111,0,0,1,.418,1.664A4.584,4.584,0,0,1,91.494,77.7l.163-.01.133.112a3.475,3.475,0,0,1,.429.459l.02.03.01.031a1.931,1.931,0,0,1,.071,1.051v.041a3.164,3.164,0,0,1-4.266,2.644c.082.561-.5,1-1.072,1.163a4.12,4.12,0,0,1-1.174.163,4.35,4.35,0,0,1-1.9-.439l-.388-.194.214-.378a7.5,7.5,0,0,0,.858-2.225l.061-.3.3-.031a3.086,3.086,0,0,0,2.092-1.061,2.237,2.237,0,0,0,.245-2.531,1.836,1.836,0,0,0-1.143-.806,1.858,1.858,0,0,0-.408-.051H85.2l.153-.521a7.418,7.418,0,0,0-1.276-6.47,8.372,8.372,0,0,0-6.491-3.123h-.041A9.49,9.49,0,0,0,70.889,68.1a8.682,8.682,0,0,0-2.582,7.359l.051.3-.265.133a2.4,2.4,0,0,0-1.143,1.194,2.055,2.055,0,0,0,.5,2.3,1.75,1.75,0,0,0,1.163.419,1.82,1.82,0,0,0,.663-.123l.459-.183.092.49a7.422,7.422,0,0,0,.99,2.562l.163.265-.214.224A4.948,4.948,0,0,1,67.215,84.568Z" transform="translate(-47.376 -47.253)" fill="#04004a"/>
    <path id="Path_62" data-name="Path 62" d="M76.249,95.617a2.107,2.107,0,0,1-1.623-.582,1.207,1.207,0,0,1-.266-.949.8.8,0,0,1,.388-.592,4.124,4.124,0,0,1-.623.061,1.754,1.754,0,0,1-1.674-.99,1.878,1.878,0,0,1,.224-1.939,2.348,2.348,0,0,1-1.837-3.582,3.611,3.611,0,0,1,1.276-1.163l.092-.02.092.02v-.01a2.144,2.144,0,0,1-1.3-1.2,3.053,3.053,0,0,1,.01-2.449A5.541,5.541,0,0,1,74.4,79.594a2.477,2.477,0,0,1-.52-2.725,2.44,2.44,0,0,1,2.194-1.4,1.215,1.215,0,0,1,.194.01,1.8,1.8,0,0,1,1.5-2.858,1.758,1.758,0,0,1,.9.234,2.371,2.371,0,0,1,1.48-2.551,2.229,2.229,0,0,1,.735-.122,2.362,2.362,0,0,1,2.031,1.143,2.318,2.318,0,0,1,2.1-1.714h.072a2.3,2.3,0,0,1,2.143,1.561,1.673,1.673,0,0,1,1.367-.684,1.581,1.581,0,0,1,.786.2,1.663,1.663,0,0,1,.6,2.113,1.959,1.959,0,0,1,1.449-.592,2.219,2.219,0,0,1,1.9,1.1,2.071,2.071,0,0,1,1.776-1,1.8,1.8,0,0,1,.877.214,2.039,2.039,0,0,1,.827,2.644,1.733,1.733,0,0,1,.684-.133,2.346,2.346,0,0,1,2.01,1.306,3.329,3.329,0,0,1-.327,3.092,2.97,2.97,0,0,1,2.368,2.276,3.009,3.009,0,0,1-1.276,3.011l.031.01a1.177,1.177,0,0,1,.929.48,2.111,2.111,0,0,1,.418,1.664,4.584,4.584,0,0,1-1.123,1.868l.163-.01.133.112a3.473,3.473,0,0,1,.429.459l.02.03.01.031a1.931,1.931,0,0,1,.071,1.051v.041a3.164,3.164,0,0,1-4.266,2.644c.082.561-.5,1-1.072,1.163a4.119,4.119,0,0,1-1.174.163,4.35,4.35,0,0,1-1.9-.439l-.388-.194.214-.378A7.5,7.5,0,0,0,93.63,91.2l.061-.3.3-.031a3.086,3.086,0,0,0,2.092-1.061,2.237,2.237,0,0,0,.245-2.531,1.836,1.836,0,0,0-1.143-.806,1.857,1.857,0,0,0-.408-.051h-.541l.153-.521a7.418,7.418,0,0,0-1.276-6.47,8.372,8.372,0,0,0-6.491-3.123h-.041a9.49,9.49,0,0,0-6.654,2.837A8.682,8.682,0,0,0,77.341,86.5l.051.3-.265.133a2.4,2.4,0,0,0-1.143,1.194,2.055,2.055,0,0,0,.5,2.3,1.75,1.75,0,0,0,1.163.419,1.82,1.82,0,0,0,.663-.123l.459-.183.092.49a7.421,7.421,0,0,0,.99,2.562l.163.266-.214.224A4.947,4.947,0,0,1,76.249,95.617Z" transform="translate(-53.312 -54.513)" fill="#04004a"/>
    <path id="Path_63" data-name="Path 63" d="M214.248,119.969c-1.447,1.026-3.224,1.007-3.968-.043s-.175-2.733,1.272-3.759,2.133-1.384,2.878-.334c.275.388,1.638,1.468,1.576,1.964A3.57,3.57,0,0,1,214.248,119.969Z" transform="translate(-144.95 -84.467)" fill="#e3b5b1"/>
    <path id="Path_64" data-name="Path 64" d="M210.742,136.99l3.143-5.754L202.1,125.575l-1.484,7.7Z" transform="translate(-138.814 -91.283)" fill="#ffb5b1"/>
    <path id="Path_65" data-name="Path 65" d="M135.971,158.048s15.632,4.652,19.645,1.786c2.512-1.793,2.934-11.991,2.934-11.991l9.057,3.444s-1.889,16.505-6.123,19.263c-4.194,2.731-19.9-2.169-19.9-2.169Z" transform="translate(-96.34 -105.914)" fill="url(#linear-gradient)"/>
    <path id="Path_66" data-name="Path 66" d="M96.59,158.177l1.75-9.239,9.565-.544,1,8.823Z" transform="translate(-70.464 -106.276)" fill="#ffbbb3"/>
    <path id="Path_67" data-name="Path 67" d="M80.841,174.692s13.206-.854,17.6-.638a17.638,17.638,0,0,1,4.72.638c1.824.8,5.171,3.352,6.123,5.1,2.67,4.91,2.571,23.018,2.571,23.018H80.841Z" transform="translate(-60.001 -123.114)" fill="#24266f"/>
    <path id="Path_68" data-name="Path 68" d="M100.015,150.975l10.071-2.582.255,1.95L99.91,152.081Z" transform="translate(-72.645 -106.276)" fill="#e1aca6"/>
    <rect id="Rectangle_56" data-name="Rectangle 56" width="26.339" height="6.641" transform="translate(54.083 28.663) rotate(20.27)" fill="url(#linear-gradient-2)"/>
    <path id="Path_69" data-name="Path 69" d="M82.587,113.193l-2.914,5.118,3.792-.39Z" transform="translate(-59.348 -83.148)" fill="#ffbbb3"/>
    <path id="Path_70" data-name="Path 70" d="M102.983,95.278l4.506-8.5,2.4-11.338-4.356-5.315-9.012-1.594L89.165,70.3l-3.07,9.53s-.833,9.194-.685,12.26c.093,1.935.979,6.38,2.7,7.263C91.544,101.11,102.983,95.278,102.983,95.278Z" transform="translate(-63.106 -53.8)" fill="#ffbbb3"/>
    <circle id="Ellipse_22" data-name="Ellipse 22" cx="16.53" cy="16.53" r="16.53" transform="translate(23.086 8.908)" fill="url(#linear-gradient-3)"/>
    <circle id="Ellipse_23" data-name="Ellipse 23" cx="12.988" cy="12.988" r="12.988" transform="translate(26.731 12.9)" fill="#fff"/>
    <path id="Path_71" data-name="Path 71" d="M113.191,131.85a7.46,7.46,0,0,0,2.359,1.445,20.777,20.777,0,0,0,6.348,1.2,10.96,10.96,0,0,0,3.287-.747c.5-.159,3.239-1.645,3.239-1.645s-5.819.875-7.774.853A69.221,69.221,0,0,1,113.191,131.85Z" transform="translate(-81.371 -95.406)" fill="#ffb5b1"/>
    <circle id="Ellipse_24" data-name="Ellipse 24" cx="6" cy="6" r="6" transform="translate(38.067 21.263)" fill="url(#linear-gradient-4)"/>
    <ellipse id="Ellipse_25" data-name="Ellipse 25" cx="1.689" cy="1.689" rx="1.689" ry="1.689" transform="translate(40.693 22.982)" fill="#fff"/>
    <circle id="Ellipse_26" data-name="Ellipse 26" cx="2.913" cy="2.913" r="2.913" transform="translate(42.674 27.759)" fill="#fff"/>
    <path id="Path_72" data-name="Path 72" d="M54,204.085s-1.019-12.358,0-16.757c.728-3.143,4.259-9.1,6.953-10.871.846-.557,4-.657,4-.657l-1.445,18.181v10.1Z" transform="translate(-42.154 -124.285)" fill="url(#linear-gradient-4)"/>
    <path id="Path_73" data-name="Path 73" d="M113.717,65.777a7.46,7.46,0,0,1,2.359-1.445,20.777,20.777,0,0,1,6.348-1.2,10.961,10.961,0,0,1,3.287.747c.5.159,3.239,1.645,3.239,1.645s-5.819-.875-7.774-.853A69.224,69.224,0,0,0,113.717,65.777Z" transform="translate(-81.717 -50.251)" fill="#ffb5b1"/>
    <circle id="Ellipse_27" data-name="Ellipse 27" cx="2.913" cy="2.913" r="2.913" transform="translate(45.202 19.673)" fill="#fff" opacity="0.4"/>
    <ellipse id="Ellipse_28" data-name="Ellipse 28" cx="2.191" cy="2.834" rx="2.191" ry="2.834" transform="translate(58.391 39.323) rotate(-63.525)" fill="#ffb5b1"/>
    <path id="Path_74" data-name="Path 74" d="M211.159,115.748c-1.076,1.41-2.778,1.92-3.8,1.139s-.98-2.557.1-3.967,1.625-1.956,2.648-1.175c.378.289,2,.915,2.089,1.407A3.57,3.57,0,0,1,211.159,115.748Z" transform="translate(-142.758 -81.961)" fill="#ffb5b1"/>
    <path id="Path_75" data-name="Path 75" d="M224.432,121.083c-.891,1.168-2.3,1.59-3.148.943s-.811-2.117.08-3.285,1.346-1.619,2.193-.973c.313.239,1.656.758,1.729,1.165A2.956,2.956,0,0,1,224.432,121.083Z" transform="translate(-151.993 -85.96)" fill="#ffb5b1"/>
    <path id="Path_76" data-name="Path 76" d="M234.542,125.408c-.891,1.168-2.3,1.59-3.148.943s-.811-2.117.08-3.285,1.346-1.619,2.193-.973c.313.239,1.656.758,1.729,1.165A2.956,2.956,0,0,1,234.542,125.408Z" transform="translate(-158.636 -88.801)" fill="#ffb5b1"/>
    <path id="Path_78" data-name="Path 78" d="M32.076,147.042l5.188,4.757,1.961-10.3Z" transform="translate(-28.074 -101.748)" fill="#bf266f"/>
    <path id="Path_80" data-name="Path 80" d="M35.58,99.79l3.145-2.4-5.5-2.1Z" transform="translate(-33.224 -82.128)" fill="#bf266f"/>
    <circle id="Ellipse_29" data-name="Ellipse 29" cx="2.6" cy="2.6" r="2.6" transform="translate(9.663 3.808)" fill="#bf266f"/>
    <ellipse id="Ellipse_31" data-name="Ellipse 31" cx="2.017" cy="2.017" rx="2.017" ry="2.017" transform="translate(1.794 28.199)" fill="#60cd6f"/>
  </g>
</svg>
