<svg id="calendar" xmlns="http://www.w3.org/2000/svg" width="37.48" height="36.039" viewBox="0 0 37.48 36.039">
  <path id="Path_18" data-name="Path 18" d="M83.318,50.883h-3.6v-.721a2.162,2.162,0,1,0-4.325,0v.721H72.506v-.721a2.162,2.162,0,1,0-4.325,0v.721H65.3v-.721a2.162,2.162,0,1,0-4.325,0v.721h-3.6v-.721a2.162,2.162,0,1,0-4.325,0v.721H50.162A2.165,2.165,0,0,0,48,53.045V81.876a2.165,2.165,0,0,0,2.162,2.162H83.318a2.165,2.165,0,0,0,2.162-2.162V53.045a2.165,2.165,0,0,0-2.162-2.162Zm-6.487-.721a.721.721,0,1,1,1.442,0v2.883a.721.721,0,1,1-1.442,0Zm-7.208,0a.721.721,0,1,1,1.442,0v2.883a.721.721,0,1,1-1.442,0Zm-7.208,0a.721.721,0,0,1,1.442,0v2.883a.721.721,0,1,1-1.442,0Zm-7.929,0a.721.721,0,1,1,1.442,0v2.883a.721.721,0,1,1-1.442,0ZM84.039,81.876a.721.721,0,0,1-.721.721H50.162a.721.721,0,0,1-.721-.721V58.091h34.6Zm0-25.227h-34.6v-3.6a.721.721,0,0,1,.721-.721h2.883v.721a2.162,2.162,0,0,0,4.325,0v-.721h3.6v.721a2.162,2.162,0,1,0,4.325,0v-.721h2.883v.721a2.162,2.162,0,1,0,4.325,0v-.721h2.883v.721a2.162,2.162,0,0,0,4.325,0v-.721h3.6a.721.721,0,0,1,.721.721Z" transform="translate(-48 -48)" fill="#333"/>
  <path id="Path_19" data-name="Path 19" d="M168.792,213.934a.72.72,0,0,0,.667-.77,6.489,6.489,0,1,1,3.361,5.23l1.323-1.5a.721.721,0,0,0-.408-1.187l-4.132-.769a.721.721,0,0,0-.842.832l.788,4.548a.721.721,0,0,0,1.25.355l1.042-1.177a7.932,7.932,0,1,0-3.82-6.233.709.709,0,0,0,.77.667Zm1.922,4.665-.355-2.049,1.861.347Z" transform="translate(-157.19 -190.648)" fill="#333"/>
  <path id="Path_20" data-name="Path 20" d="M248.768,236.82a.721.721,0,0,0-.721.721v4.325a.721.721,0,0,0,.288.577l2.883,2.162a.721.721,0,1,0,.865-1.153l-2.595-1.946v-3.964A.721.721,0,0,0,248.768,236.82Z" transform="translate(-230.023 -219.808)" fill="#333"/>
  <path id="Path_21" data-name="Path 21" d="M336,384h1.442v1.442H336Z" transform="translate(-310.052 -353.728)" fill="#333"/>
  <path id="Path_22" data-name="Path 22" d="M368,384h1.442v1.442H368Z" transform="translate(-339.169 -353.728)" fill="#333"/>
  <path id="Path_23" data-name="Path 23" d="M400,384h1.442v1.442H400Z" transform="translate(-368.286 -353.728)" fill="#333"/>
</svg>
