<svg id="Group_3" data-name="Group 3" xmlns="http://www.w3.org/2000/svg" width="25" height="36" viewBox="0 0 25 36">
  <g id="Rectangle_37" data-name="Rectangle 37" transform="translate(0 18)" fill="none" stroke="#fff" stroke-width="1.5">
    <path d="M10,0h5A10,10,0,0,1,25,10v8a0,0,0,0,1,0,0H0a0,0,0,0,1,0,0V10A10,10,0,0,1,10,0Z" stroke="none"/>
    <path d="M10,.75h5A9.25,9.25,0,0,1,24.25,10v6.5a.75.75,0,0,1-.75.75H1.5a.75.75,0,0,1-.75-.75V10A9.25,9.25,0,0,1,10,.75Z" fill="none"/>
  </g>
  <g id="Ellipse_10" data-name="Ellipse 10" transform="translate(6)" fill="none" stroke="#fff" stroke-width="1.5">
    <ellipse cx="7" cy="7.5" rx="7" ry="7.5" stroke="none"/>
    <ellipse cx="7" cy="7.5" rx="6.25" ry="6.75" fill="none"/>
  </g>
</svg>
